<svg id="Layer_1" data-name="Layer 1" xmlns="http://www.w3.org/2000/svg" viewBox="0 0 47 45"><defs><style>.cls-1{fill:#e8000d;}</style></defs><path class="cls-1" d="M23.48,10.3c.49-.61.92-1.22,1.43-1.76a10.46,10.46,0,0,1,14.2-1.08,10,10,0,0,1,3.58,9,19.43,19.43,0,0,1-3.94,9.62,47.79,47.79,0,0,1-9.22,9.57c-1.68,1.36-3.46,2.59-5.19,3.88a1.25,1.25,0,0,1-1.58,0A57.25,57.25,0,0,1,8.94,27a23.07,23.07,0,0,1-4.2-8.2,11,11,0,0,1,.85-8.55,9.46,9.46,0,0,1,9.14-5,10.41,10.41,0,0,1,8.48,4.7A4.56,4.56,0,0,1,23.48,10.3ZM14.33,7.24A7.79,7.79,0,0,0,6.9,12.35a9.66,9.66,0,0,0-.07,6.24A22.25,22.25,0,0,0,11,26.21,57.16,57.16,0,0,0,23.28,37.43c.24.17.37.06.54-.06A62.82,62.82,0,0,0,32.71,30a32.77,32.77,0,0,0,6.14-8.14,13.69,13.69,0,0,0,1.71-6.94,7.84,7.84,0,0,0-3.47-6.36A8.51,8.51,0,0,0,24.43,13c-.18.56-.47.8-.94.79a.94.94,0,0,1-1-.75A8.66,8.66,0,0,0,14.33,7.24Z"/></svg>