<svg id="Layer_1" data-name="Layer 1" xmlns="http://www.w3.org/2000/svg" viewBox="0 0 47 45"><defs><style>.cls-1{fill:#e8000d;}</style></defs><path class="cls-1" d="M39.11,7.46a10.46,10.46,0,0,0-14.2,1.08c-.5.54-.94,1.15-1.43,1.76a4.56,4.56,0,0,0-.27-.39,10.41,10.41,0,0,0-8.48-4.7,9.46,9.46,0,0,0-9.14,5,11,11,0,0,0-.85,8.55A23.07,23.07,0,0,0,8.94,27,57.25,57.25,0,0,0,22.76,39.57a1.25,1.25,0,0,0,1.58,0c1.73-1.29,3.51-2.52,5.19-3.88a47.79,47.79,0,0,0,9.22-9.57,19.43,19.43,0,0,0,3.94-9.62A10.06,10.06,0,0,0,39.11,7.46Z"/></svg>