<svg id="fdjhsuiobsdo" data-name="Layer 1" xmlns="http://www.w3.org/2000/svg" viewBox="0 0 32 32"><defs><style>.fduhsiaf{fill:#f2f2dd;}.fjdsoiufhdsi{fill:#e8000d;}</style></defs><circle class="fduhsiaf" cx="16" cy="16" r="6.26"/><path class="fjdsoiufhdsi" d="M30,14A12,12,0,0,1,18,2a2,2,0,0,0-4,0A12,12,0,0,1,2,14a2,2,0,0,0,0,4A12,12,0,0,1,14,30a2,2,0,0,0,4,0A12,12,0,0,1,30,18a2,2,0,0,0,0-4ZM9.74,16A16.1,16.1,0,0,0,16,9.74,16.1,16.1,0,0,0,22.26,16,16.1,16.1,0,0,0,16,22.26,16.1,16.1,0,0,0,9.74,16Z"/></svg>