<svg width="480" height="480" viewBox="0 0 480 480" fill="none" xmlns="http://www.w3.org/2000/svg">
<g clip-path="url(#clip0_1171_6164)">
<rect width="480" height="480" fill="#F3F7E1"/>
<circle cx="240" cy="240" r="240" fill="#F3F7E1"/>
<path fill-rule="evenodd" clip-rule="evenodd" d="M100.205 109.982C98.5211 109.982 96.875 109.484 95.4749 108.551C94.0747 107.618 92.9834 106.292 92.339 104.74C91.6946 103.189 91.526 101.482 91.8545 99.8345C92.183 98.1874 92.9939 96.6744 94.1847 95.487C95.3754 94.2995 96.8925 93.4908 98.544 93.1632C100.196 92.8355 101.908 93.0037 103.463 93.6464C105.019 94.289 106.349 95.3773 107.284 96.7737C108.22 98.17 108.719 99.8116 108.719 101.491C108.715 103.742 107.817 105.899 106.221 107.491C104.625 109.082 102.462 109.978 100.205 109.982ZM100.202 106.246C99.2599 106.245 98.3393 105.966 97.5562 105.445C96.772 104.922 96.1609 104.179 95.8001 103.311C95.4392 102.442 95.3448 101.486 95.5288 100.563C95.7127 99.6409 96.1668 98.7937 96.8336 98.1287C97.5004 97.4637 98.35 97.0108 99.2749 96.8274C100.2 96.6439 101.158 96.7381 102.03 97.098C102.901 97.4579 103.645 98.0673 104.169 98.8493C104.693 99.6304 104.972 100.548 104.973 101.488C104.97 102.749 104.466 103.957 103.572 104.849C102.678 105.741 101.466 106.243 100.202 106.246ZM115.956 148.191C112.673 148.191 109.464 147.245 106.734 145.473C104.004 143.701 101.876 141.182 100.619 138.235C99.3618 135.288 99.0322 132.045 99.6716 128.916C100.311 125.787 101.891 122.912 104.211 120.656C106.532 118.399 109.489 116.861 112.708 116.237C115.928 115.613 119.266 115.931 122.3 117.15C125.334 118.369 127.928 120.434 129.754 123.085C131.58 125.737 132.556 128.854 132.559 132.045C132.555 136.323 130.805 140.426 127.693 143.453C124.58 146.48 120.36 148.184 115.956 148.191ZM128.812 132.045C128.809 135.301 127.477 138.444 125.077 140.778C122.674 143.116 119.395 144.448 115.954 144.455C113.391 144.455 110.893 143.716 108.777 142.342C106.662 140.969 105.027 139.027 104.066 136.773C103.105 134.52 102.855 132.047 103.342 129.662C103.83 127.276 105.037 125.071 106.827 123.33C108.618 121.589 110.911 120.391 113.423 119.905C115.935 119.418 118.539 119.666 120.9 120.615C123.261 121.563 125.263 123.164 126.666 125.201C128.067 127.235 128.81 129.616 128.812 132.045ZM101.367 154.329C98.1313 152.213 94.3203 151.078 90.4161 151.078C85.1795 151.085 80.1728 153.125 76.4905 156.731C72.8107 160.334 70.7531 165.204 70.7462 170.27C70.7466 174.049 71.891 177.749 74.043 180.902C76.1959 184.057 79.2633 186.526 82.865 187.987C86.4673 189.448 90.435 189.832 94.2636 189.086C96.1238 188.724 97.9083 188.103 99.5665 187.252V191.369C98.0978 191.98 96.5621 192.445 94.9816 192.753C90.4398 193.637 85.732 193.183 81.4537 191.448C77.1754 189.713 73.5187 186.774 70.9459 183.004C68.3732 179.234 67 174.802 67 170.268C67.0074 164.19 69.4766 158.363 73.866 154.065C78.2553 149.767 84.2064 147.349 90.4138 147.342C95.0446 147.342 99.5714 148.687 103.422 151.206C106.509 153.226 109.051 155.928 110.85 159.08C109.625 159.363 108.418 159.736 107.229 160.198L107.17 160.22C105.7 157.887 103.726 155.873 101.367 154.329ZM107.17 160.22C107.716 161.088 108.193 161.999 108.594 162.947C110.073 166.445 110.46 170.289 109.706 173.998C108.953 177.707 107.091 181.124 104.345 183.812C102.934 185.195 101.321 186.352 99.5665 187.252V165.213C101.628 163.038 104.163 161.374 107.17 160.22ZM110.85 159.08C112.791 158.631 114.777 158.407 116.808 158.407C121.637 158.407 125.727 159.601 129.08 161.989C132.712 164.695 134.528 168.437 134.528 173.213V183.84H142.13C142.13 182.805 141.931 182.108 141.532 181.75C141.173 181.352 140.574 181.153 139.736 181.153H137.7V165.213C139.776 163.024 142.33 161.352 145.363 160.198C148.436 159.004 151.629 158.407 154.941 158.407C159.771 158.407 163.861 159.601 167.214 161.989C170.846 164.695 172.661 168.437 172.661 173.213V232.557C168.192 235.9 162.464 237.572 155.48 237.572C150.092 237.572 145.822 236.477 142.669 234.288C139.357 232.059 137.7 228.835 137.7 224.616V212.795H141.951C143.587 212.795 144.605 212.596 145.004 212.198C145.443 211.76 145.662 211.064 145.662 210.109H126.865C126.865 211.064 127.044 211.76 127.404 212.198C127.763 212.596 128.621 212.795 129.978 212.795H134.528V232.557C131.454 234.547 128.541 235.88 125.787 236.557C123.034 237.233 120.22 237.572 117.346 237.572C111.959 237.572 107.688 236.477 104.535 234.288C101.223 232.059 99.5665 228.835 99.5665 224.616V191.369C102.318 190.225 104.835 188.569 106.97 186.478C110.244 183.272 112.474 179.187 113.378 174.74C114.281 170.293 113.817 165.683 112.045 161.494C111.694 160.664 111.295 159.858 110.85 159.08ZM240.232 213.87C239.594 212.119 239.274 209.81 239.274 206.944V195.243C239.274 187.123 236.68 180.855 231.492 176.437C226.304 172.019 218.641 169.81 208.504 169.81C203.595 169.81 198.925 170.327 194.495 171.362C190.065 172.357 186.414 173.511 183.54 174.825C182.822 176.218 182.463 178.347 182.463 181.213C182.463 186.268 183.44 190.447 185.396 193.75C189.666 191.322 194.815 190.108 200.841 190.108C203.675 190.108 205.969 190.288 207.726 190.646C209.482 191.004 210.36 191.701 210.36 192.735C210.36 193.014 210.3 193.352 210.18 193.75C210.06 193.711 209.282 193.551 207.845 193.273C205.69 192.954 203.455 192.795 201.14 192.795C194.356 192.795 188.828 194.566 184.558 198.109C179.888 202.049 177.554 207.621 177.554 214.825C177.554 221.989 179.749 227.581 184.139 231.601C188.569 235.581 194.475 237.572 201.859 237.572C207.087 237.572 210.998 236.696 213.592 234.945C212.195 233.552 211.497 232.298 211.497 231.183C211.497 229.87 212.175 229.213 213.532 229.213C214.61 231.92 216.406 233.989 218.92 235.422C221.435 236.855 224.208 237.572 227.241 237.572C231.711 237.572 235.463 236.178 238.496 233.392C241.928 230.248 243.644 225.85 243.644 220.198V219.124C243.644 218.566 243.624 218.188 243.585 217.989C241.988 216.994 240.871 215.621 240.232 213.87ZM205.69 212.138C205.69 210.626 206.528 209.87 208.204 209.87H212.575C212.575 211.502 212.255 212.656 211.617 213.333C210.978 213.969 209.98 214.288 208.623 214.288C206.668 214.288 205.69 213.571 205.69 212.138ZM255.541 228.795C261.727 235.164 270.008 238.348 280.385 238.348C288.846 238.348 295.59 236.278 300.619 232.139C305.009 228.517 307.204 224.158 307.204 219.064C307.204 214.686 306.206 210.964 304.211 207.9C300.978 210.009 296.887 211.064 291.939 211.064C287.03 211.064 282.919 209.631 279.606 206.765C276.733 204.337 275.296 201.671 275.296 198.765C275.296 197.492 276.174 196.855 277.93 196.855C278.409 200.278 279.966 203.064 282.6 205.213C285.274 207.323 288.606 208.377 292.597 208.377C297.506 208.377 301.457 206.865 304.45 203.84C307.484 200.775 309 196.815 309 191.959C309 184.954 306.266 179.422 300.799 175.362C295.331 171.263 288.447 169.213 280.145 169.213C270.806 169.213 263.024 171.999 256.798 177.571C249.814 183.82 246.322 192.317 246.322 203.064C246.322 213.81 249.395 222.387 255.541 228.795ZM340.712 215.303L343.585 214.049C344.304 221.333 346.419 227.084 349.931 231.303C353.483 235.482 357.993 237.572 363.46 237.572C368.968 237.572 373.278 235.96 376.391 232.736C379.185 229.79 380.582 226.129 380.582 221.751C380.582 217.333 379.504 213.173 377.349 209.273C371.762 208.357 367.132 206.825 363.46 204.676C368.05 203.084 371.782 200.716 374.655 197.571C377.768 194.069 379.325 189.87 379.325 184.974C379.325 180.079 377.608 176.238 374.176 173.452C370.744 170.626 365.955 169.213 359.809 169.213C359.17 169.213 358.053 169.352 356.456 169.631C354.9 169.87 353.782 170.049 353.104 170.168C352.425 170.287 351.827 170.387 351.308 170.467C349.831 176.118 348.195 180.656 346.399 184.079C344.643 187.502 342.208 190.666 339.095 193.571C338.137 193.094 337.659 192.576 337.659 192.019C337.659 191.422 337.918 190.725 338.437 189.929C338.996 189.133 339.734 188.258 340.652 187.302C341.57 186.307 342.208 185.551 342.567 185.034C344.443 179.979 345.381 174.805 345.381 169.511V163.183C345.381 159.243 343.685 156.218 340.293 154.108C337.299 152.317 333.508 151.422 328.918 151.422C326.165 151.422 323.431 151.78 320.717 152.496C318.043 153.213 315.748 154.128 313.832 155.243V224.915C313.832 228.855 315.548 232.019 318.981 234.407C321.934 236.517 325.426 237.572 329.457 237.572C336.481 237.572 341.969 235.542 345.92 231.482C344.363 229.253 343.146 226.706 342.268 223.84C341.23 220.815 340.712 217.969 340.712 215.303ZM134.528 260.119V257.432C134.528 253.174 132.811 249.95 129.379 247.761C126.346 245.93 122.654 245.014 118.304 245.014C109.923 245.014 103.677 246.885 99.5665 250.626V312.239C99.5665 316.139 101.303 319.144 104.775 321.254C107.848 323.204 111.539 324.179 115.85 324.179C123.832 324.179 129.918 322.308 134.109 318.567V313.97C131.874 308.995 130.197 305.015 129.08 302.03C127.962 299.283 127.404 297.552 127.404 296.836C127.404 295.721 128.062 295.164 129.379 295.164H129.679L135.246 309.015C137.321 314.308 140.195 318.249 143.866 320.836C146.979 323.065 150.711 324.179 155.061 324.179C166.835 324.179 173.3 317.731 174.457 304.836L158.533 290.209C156.498 288.338 154.722 287.084 153.205 286.447C151.729 285.771 150.072 285.253 148.237 284.895C148.237 283.184 149.115 282.328 150.871 282.328C152.627 282.328 154.602 282.945 156.797 284.179C161.507 281.154 165.318 277.592 168.231 273.492C171.145 269.353 172.602 265.154 172.602 260.895C172.602 255.801 170.726 251.781 166.974 248.835C163.542 246.208 159.431 244.895 154.642 244.895C149.893 244.895 146.141 245.79 143.388 247.582L131.594 273.373C130.277 273.373 129.619 272.796 129.619 271.641C129.619 270.965 130.038 269.711 130.876 267.88C131.714 266.01 132.931 263.422 134.528 260.119ZM240.249 248.895C236.737 246.308 232.586 245.014 227.797 245.014C221.012 245.014 215.225 247.004 210.436 250.985C211.155 252.457 211.633 253.93 211.873 255.402C212.112 256.875 212.232 258.865 212.232 261.373V294.567C212.232 295.403 212.092 295.98 211.813 296.298C211.574 296.577 211.155 296.716 210.556 296.716C209.997 296.716 209.498 296.557 209.059 296.239V261.432C209.059 255.9 207.543 251.781 204.51 249.074C201.476 246.328 197.366 244.955 192.177 244.955C185.991 244.955 180.544 246.825 175.834 250.567V293.134C175.834 303.443 178.927 311.283 185.113 316.657C191.18 322.03 199.661 324.716 210.556 324.716C221.491 324.716 230.052 321.99 236.238 316.537C242.424 311.045 245.517 303.244 245.517 293.134V259.94C245.517 255.164 243.761 251.482 240.249 248.895ZM308.016 288.716C311.807 284.457 313.703 279.124 313.703 272.716C313.703 263.92 310.45 256.895 303.945 251.641C297.879 246.786 290.216 244.358 280.957 244.358C271.738 244.358 264.175 246.547 258.268 250.925C251.923 255.621 248.75 261.97 248.75 269.97C248.75 277.97 252.302 284.318 259.406 289.015C263.317 287.94 267.308 286.189 271.379 283.761C275.449 281.333 278.463 278.666 280.418 275.761C279.021 274.806 278.323 273.313 278.323 271.283C278.323 269.214 279.301 268.179 281.256 268.179C282.214 268.179 282.952 268.557 283.471 269.313C284.03 270.069 284.309 271.044 284.309 272.238C284.309 276.736 281.117 280.995 274.731 285.015C268.345 289.035 261.222 291.801 253.359 293.313C251.204 297.094 250.127 301.771 250.127 307.343C250.127 312.876 251.663 317.93 254.736 322.507H308.555C312.107 318.965 313.883 314.109 313.883 307.94C313.883 301.731 311.987 296.736 308.195 292.955C306.28 295.025 303.586 296.816 300.114 298.328C296.642 299.841 293.708 300.597 291.314 300.597C289.957 300.597 289.278 299.841 289.278 298.328C297.5 296.696 303.746 293.492 308.016 288.716ZM333.339 284.955H332.321C327.093 284.955 323.042 286.428 320.168 289.373C317.335 292.278 315.918 295.94 315.918 300.358C315.918 307.562 319.031 313.333 325.257 317.672C331.523 322.01 339.485 324.179 349.143 324.179C349.743 324.179 350.337 324.171 350.924 324.155C351.686 322.898 352.469 321.765 353.187 320.779C356.861 315.713 362.094 311.365 368.559 309.32C368.949 307.123 369.703 304.887 370.933 302.93C372.749 300.039 375.705 297.655 379.89 297.325C381.116 297.226 382.258 297.36 383.294 297.61C383.055 292.923 381.449 289.261 378.477 286.627C375.883 284.318 373.009 283.164 369.856 283.164C369.617 282.965 369.497 282.627 369.497 282.149C369.497 281.074 370.156 280.537 371.473 280.537C372.79 280.537 374.326 280.955 376.082 281.791C378.478 279.64 380.075 277.1 380.873 274.171C384.92 275.238 389.219 274.783 392.903 272.882C396.764 270.89 399.636 267.473 400.889 263.381C401.818 260.328 401.795 257.062 400.822 253.996C399.849 250.929 397.971 248.2 395.424 246.152C392.878 244.105 389.777 242.832 386.515 242.494C383.253 242.156 379.975 242.768 377.096 244.254C374.49 245.598 372.316 247.603 370.796 250.055C364.847 246.018 357.47 243.999 348.664 243.999C339.166 243.999 331.443 246.109 325.496 250.328C319.59 254.547 316.636 259.9 316.636 266.388C316.636 270.248 318.013 273.373 320.767 275.761C324 278.587 328.609 280 334.596 280C335.673 276.059 337.669 273.074 340.582 271.044C343.536 269.015 346.768 268 350.28 268C352.396 268 353.453 268.636 353.453 269.91C353.453 270.189 353.393 270.447 353.274 270.686C352.715 270.607 352.276 270.567 351.957 270.567H350.879C346.848 270.567 343.576 271.761 341.061 274.149C338.587 276.497 337.35 279.661 337.35 283.641C337.35 287.622 338.647 290.806 341.241 293.194C343.835 295.582 347.028 296.776 350.819 296.776C352.416 296.776 353.713 296.676 354.71 296.477C354.91 296.796 355.01 297.234 355.01 297.791C355.01 298.985 353.453 299.582 350.34 299.582C346.429 299.582 342.957 298.288 339.924 295.701C336.891 293.114 335.015 289.552 334.297 285.015C333.778 285.015 333.458 284.995 333.339 284.955ZM373.776 252.364C373.291 251.934 372.782 251.514 372.251 251.104C371.776 250.74 371.291 250.39 370.796 250.055C370.637 250.311 370.485 250.572 370.341 250.838C368.816 253.645 368.184 256.844 368.526 260.028C368.868 263.212 370.168 266.24 372.263 268.728C374.357 271.216 377.151 273.053 380.292 274.007C380.354 274.025 380.416 274.044 380.478 274.062L380.562 274.086C380.607 274.098 380.652 274.111 380.697 274.123C380.756 274.139 380.814 274.155 380.873 274.171C381.193 272.994 381.385 271.754 381.447 270.452C384.722 271.42 388.22 271.091 391.182 269.564C394.16 268.027 396.351 265.408 397.305 262.293C398.012 259.969 397.997 257.475 397.25 255.122C396.503 252.767 395.055 250.654 393.073 249.061C391.091 247.468 388.673 246.474 386.128 246.21C383.583 245.947 381.039 246.426 378.817 247.572C376.685 248.672 374.941 250.338 373.776 252.364ZM373.776 252.364C378.906 256.911 381.47 262.62 381.47 269.492C381.47 269.816 381.462 270.136 381.447 270.452L381.38 270.432C378.929 269.687 376.755 268.255 375.132 266.326C373.509 264.398 372.512 262.065 372.251 259.63C371.989 257.196 372.472 254.758 373.635 252.617C373.681 252.532 373.728 252.448 373.776 252.364ZM88.4549 157.956C88.4549 158.987 87.6163 159.824 86.5818 159.824C84.877 159.824 82.8053 161.094 81.0327 163.352C79.2902 165.573 78.2376 168.256 78.2378 170.267C78.2379 171.299 77.3993 172.135 76.3648 172.135C75.3303 172.135 74.4916 171.299 74.4916 170.267C74.4913 167.184 75.9934 163.712 78.0826 161.05C80.1418 158.426 83.1787 156.088 86.5817 156.088C87.6162 156.088 88.4549 156.924 88.4549 157.956ZM391.562 262.821C390.585 262.481 390.07 261.416 390.41 260.442C390.784 259.373 390.606 257.895 389.863 256.451C389.116 255.001 387.999 253.977 387.014 253.634C386.037 253.294 385.522 252.228 385.863 251.254C386.204 250.28 387.272 249.766 388.249 250.106C390.403 250.857 392.155 252.725 393.195 254.744C394.238 256.77 394.764 259.338 393.947 261.673C393.607 262.647 392.538 263.161 391.562 262.821ZM397.726 294.502C399.126 295.435 400.772 295.933 402.456 295.933C404.713 295.93 406.876 295.034 408.472 293.442C410.068 291.851 410.966 289.693 410.97 287.443C410.97 285.763 410.471 284.122 409.535 282.725C408.6 281.329 407.27 280.241 405.714 279.598C404.158 278.955 402.447 278.787 400.795 279.115C399.143 279.442 397.626 280.251 396.436 281.439C395.245 282.626 394.434 284.139 394.106 285.786C393.777 287.433 393.946 289.14 394.59 290.692C395.234 292.243 396.326 293.569 397.726 294.502ZM399.807 291.396C400.59 291.918 401.511 292.197 402.453 292.197C403.717 292.195 404.929 291.692 405.823 290.801C406.717 289.909 407.221 288.7 407.224 287.439C407.223 286.5 406.944 285.582 406.42 284.801C405.896 284.019 405.152 283.409 404.281 283.05C403.409 282.69 402.451 282.596 401.526 282.779C400.601 282.962 399.751 283.415 399.085 284.08C398.418 284.745 397.964 285.593 397.78 286.515C397.596 287.437 397.69 288.393 398.051 289.262C398.412 290.131 399.023 290.874 399.807 291.396ZM121.676 132.276C121.634 133.306 122.438 134.176 123.472 134.217C124.505 134.259 125.377 133.457 125.419 132.426C125.519 129.956 124.265 127.651 122.676 126.016C121.091 124.386 118.87 123.108 116.59 123.016C115.556 122.974 114.684 123.776 114.643 124.807C114.601 125.838 115.405 126.707 116.438 126.749C117.481 126.791 118.849 127.446 119.986 128.617C121.119 129.782 121.721 131.145 121.676 132.276Z" fill="#F37A63"/>
<path d="M392.903 272.882C389.219 274.782 384.92 275.238 380.873 274.171C381.193 272.994 381.385 271.754 381.447 270.452C384.722 271.42 388.22 271.091 391.182 269.563C394.16 268.027 396.351 265.408 397.305 262.293C398.012 259.969 397.996 257.475 397.25 255.122C396.503 252.767 395.054 250.654 393.073 249.061C391.091 247.468 388.673 246.474 386.128 246.21C383.583 245.947 381.039 246.426 378.817 247.572C376.685 248.672 374.941 250.338 373.776 252.364C373.291 251.933 372.782 251.513 372.251 251.104C371.776 250.74 371.291 250.39 370.796 250.055C372.316 247.603 374.489 245.598 377.096 244.253C379.975 242.768 383.253 242.156 386.515 242.494C389.777 242.832 392.878 244.105 395.424 246.152C397.971 248.2 399.849 250.929 400.822 253.996C401.795 257.062 401.818 260.328 400.889 263.381C399.636 267.473 396.764 270.89 392.903 272.882Z" fill="#7085C1"/>
<path fill-rule="evenodd" clip-rule="evenodd" d="M100.205 109.982C98.5211 109.982 96.875 109.484 95.4749 108.551C94.0747 107.618 92.9834 106.292 92.339 104.74C91.6946 103.189 91.526 101.482 91.8545 99.8345C92.183 98.1874 92.9939 96.6744 94.1847 95.487C95.3754 94.2995 96.8925 93.4908 98.544 93.1632C100.196 92.8355 101.908 93.0037 103.463 93.6464C105.019 94.289 106.349 95.3773 107.284 96.7737C108.22 98.17 108.719 99.8116 108.719 101.491C108.715 103.742 107.817 105.899 106.221 107.491C104.625 109.082 102.462 109.978 100.205 109.982ZM100.202 106.246C99.2599 106.245 98.3393 105.966 97.5562 105.445C96.772 104.922 96.1609 104.179 95.8001 103.311C95.4392 102.442 95.3448 101.486 95.5288 100.563C95.7127 99.6409 96.1668 98.7937 96.8336 98.1287C97.5004 97.4637 98.35 97.0108 99.2749 96.8274C100.2 96.6439 101.158 96.7381 102.03 97.098C102.901 97.4579 103.645 98.0673 104.169 98.8493C104.693 99.6304 104.972 100.548 104.973 101.488C104.97 102.749 104.466 103.957 103.572 104.849C102.678 105.741 101.466 106.243 100.202 106.246ZM115.956 148.191C112.673 148.191 109.464 147.245 106.734 145.473C104.004 143.701 101.876 141.182 100.619 138.235C99.3618 135.288 99.0322 132.045 99.6716 128.916C100.311 125.787 101.891 122.912 104.211 120.656C106.532 118.399 109.489 116.861 112.708 116.237C115.928 115.613 119.266 115.931 122.3 117.15C125.334 118.369 127.928 120.434 129.754 123.085C131.58 125.737 132.556 128.854 132.559 132.045C132.555 136.323 130.805 140.426 127.693 143.453C124.58 146.48 120.36 148.184 115.956 148.191ZM128.812 132.045C128.809 135.301 127.477 138.444 125.077 140.778C122.674 143.116 119.395 144.448 115.954 144.455C113.391 144.455 110.893 143.716 108.777 142.342C106.662 140.969 105.027 139.027 104.066 136.773C103.105 134.52 102.855 132.047 103.342 129.662C103.83 127.276 105.037 125.071 106.827 123.33C108.618 121.589 110.911 120.391 113.423 119.905C115.935 119.418 118.539 119.666 120.9 120.615C123.261 121.563 125.263 123.164 126.666 125.201C128.067 127.235 128.81 129.616 128.812 132.045ZM101.367 154.329C98.1313 152.213 94.3203 151.078 90.4161 151.078C85.1795 151.085 80.1728 153.125 76.4905 156.731C72.8107 160.334 70.7531 165.204 70.7462 170.27C70.7466 174.049 71.891 177.749 74.043 180.902C76.1959 184.057 79.2633 186.526 82.865 187.987C86.4673 189.448 90.435 189.832 94.2636 189.086C96.1238 188.724 97.9083 188.103 99.5665 187.252V191.369C98.0978 191.98 96.5621 192.445 94.9816 192.753C90.4398 193.637 85.732 193.183 81.4537 191.448C77.1754 189.713 73.5187 186.774 70.9459 183.004C68.3732 179.234 67 174.802 67 170.268C67.0074 164.19 69.4766 158.363 73.866 154.065C78.2553 149.767 84.2064 147.349 90.4138 147.342C95.0446 147.342 99.5714 148.687 103.422 151.206C106.509 153.226 109.051 155.928 110.85 159.08C109.625 159.363 108.418 159.736 107.229 160.198L107.17 160.22C105.7 157.887 103.726 155.873 101.367 154.329ZM88.4549 157.956C88.4549 158.987 87.6163 159.824 86.5818 159.824C84.877 159.824 82.8053 161.094 81.0327 163.352C79.2902 165.573 78.2376 168.256 78.2378 170.267C78.2379 171.299 77.3993 172.135 76.3648 172.135C75.3303 172.135 74.4916 171.299 74.4916 170.267C74.4913 167.184 75.9934 163.712 78.0826 161.05C80.1418 158.426 83.1787 156.088 86.5817 156.088C87.6162 156.088 88.4549 156.924 88.4549 157.956ZM391.562 262.821C390.585 262.481 390.07 261.416 390.41 260.442C390.784 259.373 390.606 257.895 389.863 256.451C389.116 255.001 387.999 253.977 387.014 253.634C386.037 253.294 385.522 252.228 385.863 251.254C386.204 250.28 387.272 249.766 388.249 250.106C390.403 250.857 392.155 252.725 393.195 254.744C394.238 256.77 394.764 259.338 393.947 261.673C393.607 262.647 392.538 263.161 391.562 262.821ZM397.726 294.502C399.126 295.435 400.772 295.933 402.456 295.933C404.713 295.93 406.876 295.034 408.472 293.442C410.068 291.851 410.966 289.693 410.97 287.443C410.97 285.763 410.471 284.122 409.535 282.725C408.6 281.329 407.27 280.241 405.714 279.598C404.158 278.955 402.447 278.787 400.795 279.115C399.143 279.442 397.626 280.251 396.436 281.439C395.245 282.626 394.434 284.139 394.106 285.786C393.777 287.433 393.946 289.14 394.59 290.692C395.234 292.243 396.326 293.569 397.726 294.502ZM399.807 291.396C400.59 291.918 401.511 292.197 402.453 292.197C403.717 292.195 404.929 291.692 405.823 290.801C406.717 289.909 407.221 288.7 407.224 287.439C407.223 286.5 406.944 285.582 406.42 284.801C405.896 284.019 405.152 283.409 404.281 283.05C403.409 282.69 402.451 282.596 401.526 282.779C400.601 282.962 399.751 283.415 399.085 284.08C398.418 284.745 397.964 285.593 397.78 286.515C397.596 287.437 397.69 288.393 398.051 289.262C398.412 290.131 399.023 290.874 399.807 291.396ZM121.676 132.276C121.634 133.306 122.438 134.176 123.472 134.217C124.505 134.259 125.377 133.457 125.419 132.426C125.519 129.956 124.265 127.651 122.676 126.016C121.091 124.386 118.87 123.108 116.59 123.016C115.556 122.974 114.684 123.776 114.643 124.807C114.601 125.838 115.405 126.707 116.438 126.749C117.481 126.791 118.849 127.446 119.986 128.617C121.119 129.782 121.721 131.145 121.676 132.276Z" fill="#7085C1"/>
<path fill-rule="evenodd" clip-rule="evenodd" d="M385.247 311.328L385.374 311.332C391.827 311.527 397.847 313.751 405.06 319.13C405.463 319.423 405.86 319.731 406.236 320.024C406.313 320.084 406.428 320.171 406.576 320.284C407.919 321.305 412.003 324.409 415.47 328.05C417.385 330.061 419.228 332.353 420.298 334.654C421.363 336.943 421.84 339.677 420.203 342.067C414.815 349.939 406.962 355.509 398.039 358.644L397.08 358.981L396.278 358.353C395 357.353 394.037 356.897 393.416 356.71C393.408 357.194 393.417 357.679 393.444 358.163L393.539 359.863L391.874 360.133C389.746 360.479 387.597 360.681 385.442 360.738C381.758 360.855 378.074 360.53 374.469 359.769C370.92 359.018 367.498 357.758 364.31 356.028L364.304 356.024C362.019 354.773 359.899 353.242 357.992 351.469L357.986 351.463C354.558 348.247 351.671 343.826 351.286 338.689C350.818 333.017 353.946 327.649 356.762 323.735C360.431 318.613 365.719 314.463 372.136 313.013L374.281 312.528L374.412 314.743C374.439 315.19 374.489 315.635 374.563 316.077C375.418 315.415 376.295 314.782 377.194 314.18C378.933 312.966 380.93 312.268 382.422 311.872C383.184 311.67 383.845 311.54 384.319 311.458C384.557 311.418 384.749 311.389 384.886 311.371C384.955 311.362 385.009 311.355 385.049 311.35L385.097 311.344L385.112 311.343L385.117 311.342L385.12 311.342C385.121 311.342 385.121 311.342 385.318 313.219L385.12 311.342L385.247 311.328ZM385.402 315.111C385.397 315.112 385.391 315.113 385.386 315.113C385.287 315.127 385.136 315.149 384.944 315.182C384.557 315.248 384.007 315.357 383.373 315.525C382.078 315.868 380.546 316.429 379.311 317.294L379.294 317.306L379.278 317.317C377.78 318.319 376.346 319.414 374.986 320.595L374.971 320.608L374.955 320.621C374.445 321.045 373.808 321.135 373.274 320.993C372.852 320.88 372.582 320.651 372.479 320.557C372.26 320.358 372.13 320.146 372.091 320.082C371.984 319.906 371.896 319.714 371.839 319.584C371.713 319.295 371.574 318.928 371.454 318.592C371.33 318.247 371.21 317.897 371.12 317.623C371.075 317.486 371.035 317.364 371.005 317.267C371.005 317.266 371.004 317.264 371.003 317.261C371.003 317.258 371.002 317.255 371 317.251C366.497 318.791 362.643 321.969 359.792 325.949L359.79 325.953C357.016 329.808 354.666 334.187 355.015 338.382L355.015 338.39L355.016 338.398C355.304 342.273 357.522 345.871 360.53 348.694C362.208 350.254 364.074 351.601 366.086 352.704C368.956 354.261 372.037 355.396 375.235 356.072C378.551 356.772 381.94 357.071 385.328 356.963L385.34 356.963C386.79 356.925 388.237 356.816 389.676 356.636C389.684 356.188 389.704 355.741 389.738 355.295C389.806 354.246 390.481 353.517 391.21 353.16C391.903 352.821 392.682 352.771 393.402 352.858C394.644 353.01 396.107 353.616 397.727 354.744C405.611 351.788 412.425 346.786 417.125 339.92C417.658 339.142 417.729 338.016 416.911 336.259C416.1 334.513 414.587 332.572 412.772 330.667C409.538 327.271 405.717 324.361 404.333 323.306C404.171 323.184 404.043 323.086 403.953 323.016C403.568 322.717 403.214 322.442 402.865 322.188L402.855 322.181L402.846 322.174C396.141 317.172 390.871 315.305 385.402 315.111ZM374.554 316.069C374.548 316.046 374.55 316.05 374.555 316.071C374.555 316.07 374.555 316.069 374.554 316.069Z" fill="#7085C1"/>
<path d="M445.289 349.202L445.242 349.146C443.79 347.216 442.935 345.873 440.152 338.684C437.369 331.496 431.592 333.079 431.592 333.079C436.122 329.727 440.759 325.965 441.072 319.995C441.259 316.301 440.255 312.719 440.255 309.044C440.255 308.813 440.255 308.582 440.255 308.342C440.376 306.463 439.321 304.861 437.252 305.193C434.221 305.683 431.9 308.573 429.972 310.733C426.152 314.963 422.864 319.686 420.884 325.046C419.68 328.239 418.797 331.542 418.251 334.908C418.718 335.651 420.044 339.017 418.251 340.965C417.882 341.496 419.054 344.345 419.213 344.876C420.006 347.576 420.73 350.416 422.594 352.609C425.55 356.099 430.784 357.046 435.137 356.496C437.742 356.141 448.847 353.892 445.289 349.202Z" fill="#7085C1"/>
<path d="M399.957 358.154C405.168 363.651 410.273 361.367 409.923 363.811C409.574 366.255 401.743 371.188 396.121 367.911C392.434 365.769 391.581 360.608 391.437 357.282C391.383 356.289 391.393 355.294 391.466 354.302C391.519 353.329 393.731 352.842 397.448 355.807C398.334 356.533 399.172 357.316 399.957 358.154Z" fill="#7085C1"/>
<path d="M401.176 311.916C402.654 314.28 404.306 317.506 403.588 320.322C403.577 320.417 403.55 320.51 403.508 320.597C396.468 315.535 390.766 313.554 384.735 313.378C384.735 313.378 380.61 313.802 377.611 315.828C376.037 316.843 374.531 317.952 373.101 319.149C372.96 319.261 372.096 316.735 372.073 316.609C371.972 316.065 371.905 315.517 371.871 314.966C371.514 309.597 373.838 302.559 380.098 302.081C383.853 301.783 386.556 304.707 390.147 305.284C391.817 305.546 393.432 305.708 394.99 306.362C397.665 307.472 399.702 309.557 401.176 311.916Z" fill="#7085C1"/>
<path d="M379.258 335.018C379.654 335.07 380.03 335.264 380.339 335.577C380.649 335.891 380.879 336.31 381.003 336.784C381.126 337.259 381.137 337.768 381.035 338.25C380.932 338.731 380.72 339.166 380.424 339.5C380.128 339.834 379.762 340.054 379.369 340.132C378.975 340.21 378.572 340.144 378.208 339.942C377.845 339.74 377.535 339.409 377.318 338.991C377.101 338.573 376.985 338.085 376.985 337.586C377.017 336.869 377.274 336.198 377.7 335.717C378.125 335.236 378.685 334.985 379.258 335.018Z" fill="#7085C1"/>
<path d="M374.552 357.287C373.773 362.366 377.44 369.09 371.199 366.276C363.376 362.759 364.714 353.94 364.714 353.94L364.813 353.576V353.552C367.867 355.277 371.148 356.536 374.552 357.287Z" fill="#7085C1"/>
<path d="M359.482 331.925C359.889 331.926 360.287 332.048 360.625 332.274C360.963 332.501 361.226 332.823 361.381 333.199C361.537 333.575 361.577 333.989 361.498 334.388C361.418 334.787 361.222 335.154 360.934 335.441C360.646 335.729 360.28 335.925 359.881 336.005C359.481 336.085 359.068 336.044 358.691 335.889C358.315 335.733 357.993 335.47 357.767 335.132C357.54 334.794 357.419 334.396 357.418 333.989C357.417 333.718 357.47 333.449 357.574 333.199C357.677 332.948 357.829 332.72 358.021 332.529C358.213 332.337 358.441 332.185 358.691 332.081C358.942 331.978 359.211 331.925 359.482 331.925Z" fill="#7085C1"/>
<path fill-rule="evenodd" clip-rule="evenodd" d="M389.416 332.014C389.872 331.797 390.417 331.992 390.633 332.451C393.381 338.283 393.122 345.265 388.886 350.148C388.554 350.53 387.977 350.57 387.597 350.236C387.217 349.903 387.177 349.323 387.509 348.94C391.166 344.725 391.49 338.562 388.982 333.237C388.766 332.779 388.96 332.231 389.416 332.014Z" fill="#7085C1"/>
<path fill-rule="evenodd" clip-rule="evenodd" d="M365.347 339.759C365.347 339.759 365.347 339.759 365.347 339.759L365.346 339.757C365.346 339.757 365.346 339.757 365.346 339.758L365.352 339.77C365.357 339.784 365.367 339.808 365.381 339.84C365.409 339.904 365.453 340.001 365.514 340.12C365.636 340.36 365.819 340.678 366.059 340.995C366.553 341.644 367.2 342.174 368.005 342.204C368.938 342.238 369.759 341.866 370.371 341.453C370.674 341.248 370.914 341.042 371.076 340.889C371.156 340.813 371.216 340.751 371.254 340.711C371.273 340.69 371.286 340.676 371.293 340.668L371.299 340.66L371.299 340.662L371.298 340.662M365.347 339.759C365.347 339.759 365.347 339.759 365.347 339.759C365.146 339.233 364.609 338.992 364.147 339.22C363.684 339.449 363.472 340.061 363.673 340.587L364.51 340.173C363.673 340.587 363.673 340.587 363.673 340.587L363.673 340.588L363.674 340.59L363.676 340.595L363.681 340.607C363.684 340.616 363.689 340.629 363.695 340.643C363.707 340.673 363.724 340.714 363.746 340.764C363.789 340.863 363.852 340.999 363.934 341.161C364.098 341.483 364.345 341.915 364.679 342.355C365.336 343.219 366.421 344.223 367.945 344.28C369.34 344.332 370.507 343.777 371.302 343.24C371.703 342.969 372.022 342.695 372.242 342.487C372.353 342.382 372.44 342.293 372.502 342.227C372.532 342.194 372.557 342.167 372.575 342.147L372.597 342.122L372.604 342.113L372.607 342.11L372.608 342.109C372.609 342.108 372.609 342.107 371.967 341.401L372.609 342.107C372.96 341.695 372.95 341.037 372.588 340.639C372.226 340.241 371.65 340.251 371.299 340.66" fill="#7085C1"/>
</g>
<defs>
<clipPath id="clip0_1171_6164">
<rect width="480" height="480" fill="white"/>
</clipPath>
</defs>
</svg>
