<svg width="317" height="247" viewBox="0 0 317 247" fill="none" xmlns="http://www.w3.org/2000/svg">
<path d="M226.567 216.837L239.968 185.606L224.892 184.762L217.354 215.993C212.328 215.993 205.989 216.162 199.958 216.837C193.928 217.513 185.805 221.058 182.176 224.434C183.572 224.715 188.281 224.73 189.956 228.106C191.227 230.668 189.956 233.107 187.733 236.441C189.687 235.879 195.603 235.097 198.291 236.441C202.737 238.664 202.181 243.11 203.099 247C215.518 240.331 218.562 237.193 224.892 224.434C226.567 221.058 233.268 221.902 233.268 220.214C233.268 217.513 228.242 216.837 226.567 216.837Z" fill="#FFB81A"/>
<path d="M185.17 210.706C188.644 203.761 192.718 192.085 189.309 190.482C179.052 185.66 189.307 190.482 179.054 185.66C174.396 187.621 168.406 190.325 163.078 193.298C157.75 196.272 150.089 202.626 148.032 207.147C149.434 206.861 154.569 206.994 157.429 209.446C159.599 211.306 159.031 214.802 157.723 217.485C159.316 216.205 166.804 213.386 169.704 214.208C174.892 215.68 177.112 218.544 178.16 221.758C180.72 219.158 181.696 217.652 185.17 210.706Z" fill="#FFB81A"/>
<path d="M283.868 101.963C263.863 99.6633 255.528 87.1183 219.407 81.9583C199.5 79.1144 167.009 91.6684 171.618 68.6216C173.84 57.5077 182.777 46.6723 180.955 38.1694C178.678 27.5408 172.173 10.8296 163.682 7.39501C155.191 3.96037 137.445 7.62022 131.906 14.2277C121.982 26.0665 120.494 41.9482 121.982 52.5938C124.931 73.698 126.174 80.2912 118.271 102.519C115.427 110.516 108.769 125.271 111.047 141.973C113.324 158.675 129.941 189.207 170.867 199.875C204.819 208.726 249.821 196.08 271.079 180.896C289.425 167.792 303.873 137.528 307.52 128.512C309.881 122.675 326.656 90.6658 309.038 95.5152C302.41 97.3395 291.514 102.842 283.868 101.963Z" fill="url(#paint0_radial_263_7702)"/>
<path d="M238.591 178.114C276.972 160.777 283.774 133.052 282.893 125.111C281.572 113.202 253.987 121.901 240.904 121.843C225.067 121.774 204.458 110.89 185.873 109.266C167.289 107.642 159.663 137.858 167.764 156.216C175.264 173.21 203.732 193.86 238.591 178.114Z" fill="#CCAD9F"/>
<path d="M241.814 173.78C280.194 156.443 286.996 128.718 286.116 120.777C284.795 108.868 257.21 117.566 244.127 117.509C228.29 117.439 207.68 106.555 189.096 104.932C170.512 103.308 162.885 133.523 170.987 151.881C178.487 168.876 206.955 189.526 241.814 173.78Z" fill="url(#paint1_radial_263_7702)"/>
<path d="M154.519 42.9551C152.697 39.0198 161.914 23.3927 165.885 22.2502C176.211 19.2796 201.593 23.4105 202.374 25.9496C203.35 29.1235 187.062 41.2824 183.888 42.2582C180.714 43.2339 156.342 46.8903 154.519 42.9551Z" fill="#FFD24D"/>
<mask id="mask0_263_7702" style="mask-type:alpha" maskUnits="userSpaceOnUse" x="152" y="29" width="50" height="22">
<path d="M154.493 45.0681C153.386 46.3591 152.921 48.212 152.724 49.1945L178.661 50.963L201.061 37.405C201.061 35.2436 200.188 31.5241 199.293 30.3311C197.525 27.9733 185.735 30.9208 179.251 33.2787C172.766 35.6366 158.029 40.9418 154.493 45.0681Z" fill="#FFB81A"/>
</mask>
<g mask="url(#mask0_263_7702)">
<path d="M154.519 42.9551C152.697 39.0198 161.914 23.3927 165.885 22.2502C176.211 19.2796 201.593 23.4105 202.374 25.9496C203.35 29.1235 187.062 41.2824 183.888 42.2582C180.714 43.2339 156.342 46.8903 154.519 42.9551Z" fill="#FFB81A"/>
</g>
<path d="M141.437 33.3284C139.693 31.9661 140.086 27.1848 141.376 27.2067C145.038 27.2687 146.792 31.9542 145.865 33.3762C144.938 34.7982 142.775 34.3733 141.437 33.3284Z" fill="#13191A"/>
<path d="M68.4127 102.824L65.8811 77.1689L55.556 82.128L61.9827 105.637C58.644 107.477 54.494 109.91 50.7348 112.567C46.9756 115.223 42.8775 120.552 41.7024 124.124C42.7328 123.8 45.8662 122.086 48.2153 123.715C49.9981 124.952 50.0464 127.038 49.7904 130.067C50.8828 128.977 54.5266 126.292 56.8048 126.201C60.5721 126.05 61.8306 129.207 63.8647 131.455C69.6737 122.478 70.5471 119.279 70.0812 108.485C69.9579 105.628 74.7185 103.736 74.1004 102.614C73.1115 100.82 69.5256 102.211 68.4127 102.824Z" fill="#FFB81A"/>
<path d="M42.3515 105.913C42.1164 100.028 40.5479 90.7791 37.6964 90.9623C29.1164 91.5134 37.6951 90.9623 29.1181 91.5129C26.7413 94.5208 23.7518 98.5103 21.3008 102.437C18.8497 106.363 16.0861 113.389 16.3749 117.146C17.2022 116.443 20.662 114.651 23.4595 115.233C25.5827 115.675 26.4849 118.205 26.5983 120.466C27.1884 119.032 31.1311 114.418 33.3582 113.903C37.3441 112.981 39.8673 114.071 41.7405 115.823C42.4895 113.157 42.5865 111.799 42.3515 105.913Z" fill="#FFB81A"/>
<path d="M51.1495 26.2656C23.2422 28.4544 -0.833844 40.5177 0.259473 64.5698C1.35392 88.6467 20.5062 111.082 54.4328 109.44C88.3593 107.799 102.479 89.9885 106.964 64.5698C111.45 39.1508 79.0568 24.0768 51.1495 26.2656Z" fill="url(#paint2_radial_263_7702)"/>
<path d="M58.8101 41.5868C59.5846 39.0391 62.2757 29.7307 63.1877 26.2651L67.5655 26.8123C67.0182 31.19 60.9989 39.398 64.8295 59.6445C63.5527 57.0909 57.6457 45.4172 58.8101 41.5868Z" fill="#CCAD9F"/>
<path d="M56.6213 58.0029C54.2646 57.4419 31.494 50.6195 29.9752 43.015C28.4564 35.4105 22.3491 27.9965 23.5942 22.1786C26.6284 8.00117 37.1178 -7.53936 57.2384 4.05358C66.3923 9.32779 65.9179 24.9775 63.8944 32.0483C55.5269 61.2861 75.9534 62.6046 56.6213 58.0029Z" fill="#FFFEF2"/>
<path d="M49.3518 21.9936C50.1051 20.7747 48.7926 17.9597 48.0141 18.2628C45.8043 19.1229 45.7917 22.3619 46.6741 23.017C47.5565 23.6722 48.7741 22.9286 49.3518 21.9936Z" fill="#13191A"/>
<path d="M26.0218 17.72C25.7622 16.3084 27.2914 13.7945 27.7684 14.29C29.1222 15.6965 28.4247 18.9612 27.6663 19.4052C26.9079 19.8493 26.2208 18.8027 26.0218 17.72Z" fill="#13191A"/>
<path d="M29.2613 36.6621C28.0262 35.674 32.6563 28.5697 31.0798 28.6157C30.6958 29.0249 29.7572 30.2888 29.0747 32.0717C28.2215 34.3003 16.3945 45.5575 25.2412 48.541C28.1668 49.5276 33.6388 47.6061 39.1109 43.2285C47.8661 43.7757 50.8077 41.356 48.9605 41.5869C44.5829 42.1341 37.4692 43.2286 29.2613 36.6621Z" fill="#CCAD9F"/>
<path d="M101.492 82.627L99.3032 86.4574C90.5479 98.4958 87.2648 78.2494 88.3591 69.4941C90.0006 82.0798 93.2839 94.1182 101.492 82.627Z" fill="#CCAD9F"/>
<path d="M40.6031 24.706C39.8173 23.1699 32.0965 21.5548 30.386 21.3682C29.9098 21.7527 28.7062 22.9778 27.7014 24.8019C26.4455 27.0821 11.9785 37.4732 21.0905 42.0231C28.0275 45.4869 37.1947 39.8782 41.675 34.6932C41.5599 33.9421 42.9655 32.6383 41.7939 30.9796C40.3294 28.9063 41.5854 26.626 40.6031 24.706Z" fill="#FFD24D"/>
<defs>
<radialGradient id="paint0_radial_263_7702" cx="0" cy="0" r="1" gradientUnits="userSpaceOnUse" gradientTransform="translate(208.754 57.5077) rotate(89.6623) scale(188.384 197.673)">
<stop offset="0.286458" stop-color="#FFFEF2"/>
<stop offset="0.875" stop-color="#CCAD9F"/>
</radialGradient>
<radialGradient id="paint1_radial_263_7702" cx="0" cy="0" r="1" gradientUnits="userSpaceOnUse" gradientTransform="translate(224.11 124.477) rotate(89.7396) scale(71.2424 113.341)">
<stop offset="0.286458" stop-color="#FFFEF2"/>
<stop offset="0.875" stop-color="#CCAD9F"/>
</radialGradient>
<radialGradient id="paint2_radial_263_7702" cx="0" cy="0" r="1" gradientUnits="userSpaceOnUse" gradientTransform="translate(56.4178 47.8761) rotate(90.4132) scale(79.9333 102.618)">
<stop offset="0.286458" stop-color="#FFFEF2"/>
<stop offset="0.875" stop-color="#CCAD9F"/>
</radialGradient>
</defs>
</svg>
