<svg width="1280" height="827" viewBox="0 0 1280 827" fill="none" xmlns="http://www.w3.org/2000/svg">
<mask id="mask0_370_537" style="mask-type:alpha" maskUnits="userSpaceOnUse" x="0" y="0" width="1280" height="827">
<rect width="1280" height="827" fill="#D9D9D9"/>
</mask>
<g mask="url(#mask0_370_537)">
<path d="M1072.11 339.945L1087.31 344.184C1106.72 298.468 1105.46 222.554 1103.23 173.449L1096.41 173.396C1094.26 226.287 1092.85 290.448 1072.11 339.945Z" fill="url(#paint0_linear_370_537)"/>
<path d="M1096.06 191.443C1097.65 194.677 1112.4 192.316 1115.89 190.569L1105.04 150.867C1100.56 146.341 1100.85 138.849 1099.11 138.229C1096.95 137.453 1089.81 137.636 1086.76 141.687C1083.41 146.141 1081 162.12 1082.41 169.982C1084.12 179.571 1094.47 188.208 1096.06 191.443Z" fill="#B33B24"/>
<path d="M1125.12 157.541C1124.44 153.706 1115.38 143.126 1113.23 141.638C1109.09 138.758 1099.64 148.474 1094.89 156.044C1091.96 162.073 1087.79 173.333 1087.41 177.88C1086.5 188.816 1091.11 192.678 1093.13 198.622C1094.3 202.058 1105.65 201.712 1108.93 200.011C1113.05 197.872 1117.47 195.753 1120.98 189.131C1124.68 182.157 1126.45 164.947 1125.12 157.541Z" fill="url(#paint1_linear_370_537)"/>
<path d="M1083.73 201.209C1079.43 199.174 1070.15 190.973 1066.5 183.745C1060.03 170.951 1065.99 150.479 1075.81 141.345C1079.47 137.937 1093.19 147.901 1098.48 155.306C1101.83 161.221 1106.79 172.294 1107.48 176.793C1109.12 187.613 1105.14 193.979 1103.5 199.911C1102.56 203.34 1087.14 202.828 1083.73 201.209Z" fill="url(#paint2_linear_370_537)"/>
<path d="M311.311 337.238L299.333 333.102C287.574 273.1 304.23 194.141 319.916 136.144L321.434 148.227C310.902 207.15 300.013 278.064 311.311 337.238Z" fill="url(#paint3_linear_370_537)"/>
<path d="M331.373 123.476C332.186 124.639 333.022 130.44 333.828 132.751L317.485 130.185C317.605 128.214 318.014 123.836 318.684 122.089C319.522 119.905 326.916 116.003 327.326 116.781L328.353 118.727C329.13 119.727 330.56 122.313 331.373 123.476Z" fill="url(#paint4_linear_370_537)"/>
<path d="M319.655 135.209C321.433 131.037 328.912 124.35 332.744 124.069C334.948 127.301 334.979 134.466 332.705 138.453C329.862 143.436 320.589 148.645 318.395 147.315C316.201 145.986 317.919 139.282 319.655 135.209Z" fill="#708033"/>
<path d="M326.122 136.193C328.174 132.269 321.033 122.632 317.724 120.68C314.315 122.598 312.953 130.664 313.222 135.246C313.558 140.973 318.536 146.372 321.093 146.154C323.649 145.937 324.07 140.116 326.122 136.193Z" fill="#708033"/>
<path d="M313.581 204.523C309.29 212.404 307.179 239.14 306.659 251.523C310.557 233.881 318.032 228.234 328.473 211.338C336.943 197.63 342.536 180.236 338.374 165.656C332.137 178.901 317.584 197.171 313.581 204.523Z" fill="url(#paint5_linear_370_537)"/>
<path d="M865.539 377.604L881.346 380.808C899.376 324.926 902.683 275.981 894.093 217.381L887.193 217.782C890.699 277.867 883.44 321.188 865.539 377.604Z" fill="url(#paint6_linear_370_537)"/>
<path d="M886.345 227.956C889.234 230.374 903.435 222.106 906.335 219.021L872.124 179.232C869.848 177.849 866.346 176.343 864.328 176.463C861.806 176.612 859.935 176.899 858.173 179.359C856.411 181.819 862.185 205.281 866.68 212.165C872.162 220.562 883.457 225.538 886.345 227.956Z" fill="url(#paint7_linear_370_537)"/>
<path d="M903.725 171.503C901.532 168.144 896.359 160.22 893.63 159.194C890.045 157.846 883.582 159.28 877.764 164.126C871.946 168.972 872.636 176.144 871.792 179.627C870.913 186.688 870.225 201.666 871.537 206.178C874.692 217.03 881.582 223.571 886.013 228.351C888.574 231.113 903.103 222.501 906.003 219.416C909.647 215.54 912.588 208.007 914.018 203.892C915.448 199.777 914.126 192.593 913.075 188.976C912.023 185.359 906.466 175.701 903.725 171.503Z" fill="url(#paint8_linear_370_537)"/>
<path d="M903.396 436.315L888.817 436.367C853.285 375.659 841.423 283.584 836.459 214.643L842.691 227.191C853.604 295.182 868.678 376.332 903.396 436.315Z" fill="url(#paint9_linear_370_537)"/>
<path d="M843.097 196.538C844.421 197.493 847.529 203.475 849.281 205.68L830.557 209.093C829.941 206.907 828.724 201.996 828.789 199.845C828.871 197.155 835.42 190.112 836.162 190.802L838.015 192.525C839.238 193.317 841.772 195.583 843.097 196.538Z" fill="url(#paint10_linear_370_537)"/>
<path d="M834.821 213.726C835.169 208.52 840.755 198.42 844.811 196.661C848.43 199.336 851.182 207.106 850.225 212.299C849.027 218.789 840.932 227.964 838.044 227.352C835.157 226.741 834.48 218.809 834.821 213.726Z" fill="#708033"/>
<path d="M842.217 212.341C842.957 207.302 831.546 199.544 827.211 198.679C824.236 202.055 825.817 211.332 827.847 216.206C830.384 222.299 837.84 226.274 840.534 225.068C843.228 223.862 841.477 217.381 842.217 212.341Z" fill="#708033"/>
<path d="M856.154 291.261C855.275 301.546 862.333 331.286 866.466 344.933C864.007 324.293 869.984 315.325 874.914 293.014C878.914 274.912 878.389 253.898 868.338 239.642C865 250 859 258 856.154 291.261Z" fill="url(#paint11_linear_370_537)"/>
<path d="M1264.09 505.843L1293.42 502.398C1292.91 394.885 1270.74 307.841 1222.36 210.787L1210.58 215.423C1250.96 317.961 1263.05 397.473 1264.09 505.843Z" fill="url(#paint12_linear_370_537)"/>
<path d="M1214.91 233.607C1221.32 236.166 1241.31 213.678 1244.59 206.657L1162.37 156.949C1157.62 155.84 1150.67 155.22 1147.23 156.579C1142.92 158.278 1139.83 159.844 1138.17 165.13C1136.51 170.416 1159.94 207.941 1171.69 217.354C1186.02 228.835 1208.51 231.048 1214.91 233.607Z" fill="url(#paint13_linear_370_537)"/>
<path d="M1212.94 125.471C1207.21 120.879 1193.69 110.043 1188.36 109.815C1181.35 109.515 1170.92 115.698 1163.56 127.449C1156.21 139.2 1161.5 151.284 1162.02 157.826C1164.52 170.612 1171.87 197.065 1176.72 204.166C1188.4 221.246 1204.12 228.696 1214.56 234.484C1220.59 237.829 1240.96 214.555 1244.24 207.534C1248.37 198.711 1249.19 183.925 1249.33 175.95C1249.47 167.975 1243.07 156.231 1239.18 150.538C1235.28 144.845 1220.11 131.212 1212.94 125.471Z" fill="url(#paint14_linear_370_537)"/>
<path d="M1470.25 447.098L1483.46 428.955C1428.63 293.576 1356.76 195.016 1246.74 97.0055L1260.22 119.015C1365.36 220.233 1415.96 314.912 1470.25 447.098Z" fill="url(#paint15_linear_370_537)"/>
<path d="M1298.39 116.875C1302.05 126.146 1300.2 133.194 1299.8 137.668L1241.8 122.7C1240.03 119.999 1236.71 114.247 1237.55 112.856C1238.6 111.117 1241.55 108.74 1244.19 107C1246.83 105.26 1247.44 97.1773 1252.99 95.3628C1257.43 93.9113 1267.32 93.8227 1269.68 95.5772C1269.76 93.332 1270.27 90.3258 1271.27 89.2086C1272.51 87.812 1277.43 88.8634 1280.19 89.3278C1282.95 89.7921 1286.17 98.6326 1288.3 101.963C1290.42 105.293 1296.85 112.981 1298.39 116.875Z" fill="#FFD24D"/>
<path d="M1257.38 144.468C1248.11 138.358 1236.25 122.923 1236.1 118.686C1236.07 117.831 1236.59 116.984 1237.42 116.218C1239.48 114.313 1243.45 112.917 1245.68 113.196C1249.59 113.684 1251.23 118.162 1255.91 116.097C1262.8 113.058 1259.74 105.035 1262.07 102.34C1263.61 100.547 1270.54 97.7083 1280.56 104.93C1288.26 110.477 1296.47 124.319 1298.94 133.84C1299.69 136.714 1299.97 138.879 1299.66 139.799C1298.29 143.768 1291.08 150.346 1286.93 151.295C1282.31 152.35 1266.64 150.562 1257.38 144.468Z" fill="#FFB81A"/>
<path d="M578.242 409.809L592.125 413.295C624.019 332.733 633.569 260.975 626.525 173.864L622.699 189.013C622.155 271.715 607.668 334.414 578.242 409.809Z" fill="url(#paint16_linear_370_537)"/>
<path d="M605.777 184.686C604.78 181.61 606.065 168.795 608.062 166.371C608.866 165.396 615.34 162.206 616.489 162.797C617.925 163.535 626.165 174.417 627.352 176.56C628.539 178.703 629.459 196.618 629.971 199.849C630.482 203.08 621.513 203.786 619.993 203.516C618.474 203.247 607.024 188.531 605.777 184.686Z" fill="url(#paint17_linear_370_537)"/>
<path d="M630.141 202.034C629.138 201.244 632.373 192.429 633.655 188.94C636.922 180.056 643.287 172.688 646.594 172.862C649.901 173.035 651.697 176.5 652.558 180.986C653.985 188.42 651.394 192.758 646.375 197.802C642.806 201.388 632.864 204.179 630.141 202.034Z" fill="url(#paint18_linear_370_537)"/>
<path d="M599.138 194.784C595.911 190.184 596.355 180.226 597.505 177.449C597.967 176.332 601.328 175.353 602.547 175.571C604.07 175.843 608.89 182.702 610.579 184.329C612.268 185.956 623.377 199.623 625.562 201.864C629.286 205.683 619.383 204.314 617.927 204.056C615.265 203.584 601.359 197.95 599.138 194.784Z" fill="url(#paint19_linear_370_537)"/>
<path d="M625.387 204.197C623.782 204.087 619.635 189.253 620.084 184.578C620.704 178.132 622.811 163.838 629.894 162.868C634.029 162.302 637.936 168.119 639.856 173.558C643.407 183.619 641.852 189.355 636.642 197.656C633.246 203.067 629.858 204.503 625.387 204.197Z" fill="url(#paint20_linear_370_537)"/>
<path d="M428.927 432.823L412.52 436.263C378.644 345.558 369.54 265.178 379.312 168.006L384.374 185.037C383.176 277.448 397.697 347.946 428.927 432.823Z" fill="url(#paint21_linear_370_537)"/>
<path d="M410.822 161.957C412.349 157.544 410.854 139.005 408.039 135.45C406.906 134.019 397.65 129.231 395.974 130.051C393.88 131.076 381.677 146.555 379.902 149.616C378.128 152.677 376.294 178.515 375.464 183.165C374.634 187.816 387.564 189.088 389.766 188.742C391.967 188.396 408.913 167.472 410.822 161.957Z" fill="url(#paint22_linear_370_537)"/>
<path d="M375.157 186.315C376.627 185.204 372.206 172.385 370.452 167.312C365.986 154.393 357.005 143.576 352.226 143.734C347.446 143.891 344.756 148.842 343.386 155.295C341.115 165.988 344.735 172.324 351.839 179.747C356.89 185.026 371.165 189.336 375.157 186.315Z" fill="url(#paint23_linear_370_537)"/>
<path d="M420.123 176.722C424.912 170.172 424.552 155.783 422.97 151.741C422.333 150.115 417.509 148.608 415.743 148.888C413.536 149.237 406.383 159.004 403.899 161.306C401.414 163.607 384.99 183.025 381.772 186.199C376.288 191.608 390.625 189.911 392.734 189.579C396.59 188.972 416.826 181.231 420.123 176.722Z" fill="url(#paint24_linear_370_537)"/>
<path d="M381.96 189.572C384.28 189.458 390.686 168.159 390.169 161.397C389.456 152.073 386.817 131.377 376.618 129.776C370.664 128.842 364.859 137.13 361.934 144.928C356.524 159.354 358.607 167.68 365.894 179.811C370.644 187.719 375.495 189.888 381.96 189.572Z" fill="url(#paint25_linear_370_537)"/>
<path d="M356.501 328.313C360.039 352.616 365.51 419.745 367.066 440.168C360.883 410.65 343.148 377.879 335.001 339.158C328.925 310.277 320.587 273.252 320.587 223.193C333.501 259.904 348.001 269.915 356.501 328.313Z" fill="url(#paint26_linear_370_537)"/>
<path d="M568.707 420.496L556.5 440.5C531 380 519.683 333.145 505.264 170.653L515.916 197.17C536.408 357.446 556.5 408.999 568.707 420.496Z" fill="url(#paint27_linear_370_537)"/>
<path d="M488.2 219.523C494.017 228.902 501.502 231.915 505.741 234.515L530.756 173.087C529.523 169.732 526.608 162.979 524.817 162.807C522.577 162.592 518.512 163.649 515.223 164.845C511.934 166.041 504.348 161.245 499.072 164.975C494.851 167.959 488.24 176.688 488.239 179.945C486.19 178.535 483.182 177.002 481.531 177.15C479.467 177.335 477.157 182.394 475.746 185.154C474.335 187.914 480.06 196.619 481.615 200.707C483.17 204.795 485.757 215.583 488.2 219.523Z" fill="#FFD24D"/>
<path d="M539.802 201.316C540.501 189.035 534.617 168.305 530.949 165.377C530.209 164.786 529.114 164.686 527.887 164.916C524.835 165.487 520.97 168.095 519.744 170.261C517.596 174.058 520.493 178.472 515.565 181.267C508.313 185.382 503.205 177.365 499.277 177.648C496.663 177.836 489.561 182.122 489.361 195.793C489.207 206.295 496.08 222.736 502.906 231.223C504.967 233.785 506.704 235.466 507.731 235.792C512.161 237.197 522.766 235.14 526.355 232.074C530.342 228.668 539.104 213.563 539.802 201.316Z" fill="#FFB81A"/>
<path d="M63.9836 170.097L54.2942 167.608C58.531 137.382 84.0753 97.3737 101.04 72.4114L104.783 74.5025C88.8879 102.942 68.7319 137.38 63.9836 170.097Z" fill="url(#paint28_linear_370_537)"/>
<path d="M107.518 67.886C105.235 69.3288 96.5662 62.3951 94.9729 60.0078L117.341 39.0855C121.996 37.8981 124.701 33.0871 126.066 33.338C127.773 33.6516 132.337 36.4036 132.754 40.0742C133.213 44.1101 128.613 55.0363 124.667 59.4536C119.852 64.8416 109.8 66.4432 107.518 67.886Z" fill="#B33B24"/>
<path d="M101.717 35.8531C103.643 33.6979 113.612 30.403 115.577 30.2597C119.38 29.9825 121.773 39.5788 121.936 46.0874C121.51 50.9551 119.876 59.5684 118.367 62.5638C114.738 69.7682 110.255 70.491 106.651 73.4776C104.567 75.2039 97.3239 70.7903 95.85 68.5096C93.9976 65.6433 91.943 62.6783 92.2184 57.2225C92.5085 51.4762 97.9995 40.0141 101.717 35.8531Z" fill="url(#paint29_linear_370_537)"/>
<path d="M111.761 78.577C115.337 78.8872 124.53 77.1671 129.694 73.9789C138.833 68.3353 142.856 53.2736 140.004 43.9093C138.94 40.4154 126.182 41.6021 119.888 44.2965C115.429 46.7729 107.935 51.8945 105.754 54.4661C100.507 60.6514 100.64 66.1226 99.4138 70.4526C98.7051 72.9554 108.915 78.3302 111.761 78.577Z" fill="url(#paint30_linear_370_537)"/>
<path d="M777.222 358.848L763.891 361.076C754.058 322.959 765.911 261.848 774.589 223.17L780.303 223.649C774.7 265.879 766.781 317.502 777.222 358.848Z" fill="url(#paint31_linear_370_537)"/>
<path d="M776.792 228.352C774.978 230.976 762.349 227.446 759.513 225.587L774.158 192.503C778.669 189.06 779.386 182.58 780.986 182.221C782.986 181.773 789.22 182.655 791.371 186.452C793.735 190.628 793.785 204.632 791.537 211.258C788.794 219.341 778.607 225.729 776.792 228.352Z" fill="#B33B24"/>
<path d="M755.679 196.21C756.776 192.977 766.091 184.787 768.161 183.723C772.167 181.664 779.203 190.99 782.39 197.99C784.177 203.478 786.382 213.597 786.126 217.551C785.512 227.06 780.973 229.918 778.435 234.831C776.967 237.671 767.053 236.221 764.397 234.423C761.058 232.164 757.454 229.89 755.231 223.832C752.89 217.451 753.561 202.452 755.679 196.21Z" fill="url(#paint32_linear_370_537)"/>
<path d="M786.347 238.013C790.377 236.697 799.577 230.577 803.716 224.725C811.043 214.364 808.454 196.131 801.025 187.27C798.253 183.963 784.932 191.151 779.336 196.99C775.632 201.743 769.853 210.775 768.671 214.579C765.827 223.728 768.5 229.614 769.169 234.888C769.555 237.937 783.139 239.06 786.347 238.013Z" fill="url(#paint33_linear_370_537)"/>
<path d="M41.6621 422.488L17.1036 422.555C-12.8627 284.333 -19.1808 166.228 15.3053 27.8024L19.0541 53.4826C-2.03996 186.822 14.2995 293.244 41.6621 422.488Z" fill="url(#paint34_linear_370_537)"/>
<path d="M52.4694 52.2518C54.8928 47.5633 56.2273 26.5814 53.6545 22.1477C52.6193 20.3638 43.0402 13.5068 41.0328 14.1524C38.5236 14.9593 22.3623 30.2972 19.8813 33.4334C17.4003 36.5695 11.159 65.1769 9.47653 70.2446C7.79404 75.3123 22.0525 78.8327 24.5712 78.8022C27.0898 78.7717 49.4401 58.1123 52.4694 52.2518Z" fill="url(#paint35_linear_370_537)"/>
<path d="M8.62218 73.7185C10.4463 72.7132 7.57953 57.6564 6.44015 51.6965C3.53891 36.5205 -4.75457 22.9636 -10.1267 22.3648C-15.4988 21.766 -19.3113 26.8687 -21.8901 33.8645C-26.1639 45.4585 -23.1424 53.1333 -16.3989 62.5899C-11.6038 69.3141 3.66617 76.4499 8.62218 73.7185Z" fill="url(#paint36_linear_370_537)"/>
<path d="M60.4799 70.2779C66.8994 63.7266 68.8298 47.5711 67.7153 42.7935C67.2669 40.8712 62.114 38.4029 60.0937 38.4296C57.5682 38.4629 47.9825 48.2291 44.8299 50.4006C41.6774 52.5722 20.1561 71.6321 16.0416 74.6607C9.02869 79.8226 25.3424 80.2489 27.7562 80.2196C32.1678 80.1661 56.0612 74.7873 60.4799 70.2779Z" fill="url(#paint37_linear_370_537)"/>
<path d="M15.7046 78.4647C18.318 78.7139 28.938 55.9259 29.4561 48.277C30.1705 37.7311 30.5741 14.1505 19.4237 10.7061C12.9148 8.69556 5.07761 17.0261 0.541 25.2756C-7.85088 40.5357 -6.87053 50.1883 -0.685677 64.9406C3.34615 74.5575 8.42153 77.7702 15.7046 78.4647Z" fill="url(#paint38_linear_370_537)"/>
<path d="M-8.72298 508.444C-3.55836 543.946 -6.88697 659.379 -6.89915 689.452C-12.5811 644.772 -15.0368 626.268 -28.1738 563.224C-36.974 520.992 -54.4681 404.867 -45.8386 372.235C-35.5982 407.704 -18.394 441.966 -8.72298 508.444Z" fill="url(#paint39_linear_370_537)"/>
<path d="M92.6122 328.727L76.9189 336.57C88.4998 266.5 113.5 185 170.942 87.1275L165.979 116.371C131.5 177 110 253.5 92.6122 328.727Z" fill="url(#paint40_linear_370_537)"/>
<path d="M177.515 143.964C168.658 150.549 160.59 150.601 155.692 151.461L155.002 85.1382C157.382 82.4714 162.574 77.2623 164.304 77.7607C166.465 78.3836 169.857 80.8607 172.477 83.1815C175.097 85.5022 183.914 83.83 187.45 89.238C190.279 93.5643 193.219 104.112 192.023 107.142C194.447 106.583 197.808 106.263 199.289 107.008C201.141 107.938 201.43 113.491 201.728 116.577C202.027 119.662 193.503 125.654 190.554 128.885C187.606 132.116 181.235 141.198 177.515 143.964Z" fill="#FFD24D"/>
<path d="M136.215 108.067C140.078 96.3896 153.168 79.2723 157.656 77.8966C158.561 77.6193 159.616 77.9291 160.673 78.5937C163.301 80.2463 165.938 84.0926 166.282 86.5575C166.885 90.8778 162.568 93.918 166.124 98.3292C171.356 104.821 179.052 99.2419 182.602 100.948C184.964 102.084 189.994 108.68 185.156 121.469C181.44 131.292 169.005 144.056 159.538 149.441C156.68 151.066 154.447 151.992 153.372 151.917C148.735 151.596 139.628 145.785 137.418 141.616C134.961 136.982 132.363 119.714 136.215 108.067Z" fill="#FFB81A"/>
<path d="M104.946 313.432L92.9679 309.296C81.2093 249.294 97.8652 170.336 113.551 112.338L115.069 124.422C104.537 183.344 93.6483 254.258 104.946 313.432Z" fill="url(#paint41_linear_370_537)"/>
<path d="M125.008 99.6704C125.821 100.833 126.657 106.634 127.463 108.946L111.12 106.38C111.24 104.409 111.649 100.03 112.319 98.2832C113.157 96.0997 120.551 92.1973 120.961 92.9755L121.988 94.9212C122.765 95.9211 124.195 98.5073 125.008 99.6704Z" fill="url(#paint42_linear_370_537)"/>
<path d="M113.29 111.404C115.068 107.231 122.547 100.544 126.379 100.263C128.583 103.495 128.614 110.661 126.34 114.647C123.497 119.63 114.224 124.839 112.03 123.509C109.836 122.18 111.554 115.477 113.29 111.404Z" fill="#708033"/>
<path d="M119.757 112.387C121.809 108.463 114.668 98.8267 111.359 96.8741C107.95 98.7924 106.588 106.858 106.857 111.44C107.193 117.167 112.171 122.566 114.728 122.349C117.284 122.131 117.705 116.31 119.757 112.387Z" fill="#708033"/>
<path d="M1055.55 470.549L1078.95 455.12C1081.54 337.665 1063.13 274.634 1007.47 141.062L1013.38 179.394C1061.33 315.754 1057 355.504 1055.55 470.549Z" fill="url(#paint43_linear_370_537)"/>
<path d="M993.218 212.329C1003.46 222.504 1013.91 224.178 1020.1 226.253L1033.51 141.7C1030.93 137.82 1025.18 130.133 1022.84 130.425C1019.92 130.789 1015.06 133.276 1011.22 135.717C1007.39 138.159 996.268 134.265 990.662 140.466C986.177 145.427 980.374 158.309 981.353 162.417C978.315 161.22 974.017 160.141 971.955 160.797C969.378 161.616 967.955 168.649 966.987 172.53C966.018 176.41 975.94 185.761 979.155 190.474C982.369 195.188 988.916 208.055 993.218 212.329Z" fill="#FFD24D"/>
<path d="M1053.55 174.725C1050.75 159.043 1037 134.575 1031.44 131.924C1030.32 131.389 1028.89 131.574 1027.4 132.212C1023.68 133.798 1019.53 138.184 1018.62 141.263C1017.02 146.66 1022.05 151.403 1016.6 156.327C1008.59 163.574 999.664 154.915 994.74 156.386C991.461 157.365 983.694 164.786 987.554 182.08C990.52 195.365 1004.24 214.144 1015.5 222.907C1018.9 225.552 1021.62 227.18 1023.03 227.299C1029.1 227.813 1042.01 222.208 1045.66 217.324C1049.72 211.897 1056.35 190.365 1053.55 174.725Z" fill="#FFB81A"/>
<path d="M1136.66 392.432L1148.64 388.296C1160.4 328.294 1143.75 249.336 1128.06 191.338L1126.54 203.422C1137.07 262.344 1147.96 333.258 1136.66 392.432Z" fill="url(#paint44_linear_370_537)"/>
<path d="M1116.6 178.67C1115.79 179.833 1114.95 185.634 1114.15 187.946L1130.49 185.38C1130.37 183.409 1129.96 179.03 1129.29 177.283C1128.45 175.1 1121.06 171.197 1120.65 171.976L1119.62 173.921C1118.85 174.921 1117.42 177.507 1116.6 178.67Z" fill="url(#paint45_linear_370_537)"/>
<path d="M1128.32 190.404C1126.54 186.231 1119.06 179.544 1115.23 179.263C1113.03 182.495 1113 189.661 1115.27 193.647C1118.11 198.63 1127.39 203.839 1129.58 202.509C1131.77 201.18 1130.06 194.477 1128.32 190.404Z" fill="#708033"/>
<path d="M1121.85 191.387C1119.8 187.463 1126.94 177.827 1130.25 175.874C1133.66 177.792 1135.02 185.858 1134.75 190.44C1134.42 196.167 1129.44 201.566 1126.88 201.349C1124.33 201.131 1123.91 195.31 1121.85 191.387Z" fill="#708033"/>
<path d="M1134.39 260.718C1138.69 268.598 1140.8 295.334 1141.32 307.717C1137.42 290.075 1129.94 284.429 1119.5 267.533C1111.03 253.825 1105.44 236.43 1109.6 221.85C1115.84 235.095 1130.39 253.366 1134.39 260.718Z" fill="url(#paint46_linear_370_537)"/>
<path d="M1323.09 498.364L1350.99 496.444C1355.41 394.719 1338.41 311.369 1297.07 217.354L1285.72 221.202C1319.24 320.039 1327.05 395.803 1323.09 498.364Z" fill="url(#paint47_linear_370_537)"/>
<path d="M1233.24 225.073C1227.71 217.434 1219.76 180.709 1223.12 172.188C1224.48 168.759 1239.58 154.088 1243.3 154.694C1247.95 155.451 1280.6 178.251 1285.82 183.132C1291.04 188.013 1309.69 236.906 1314.02 245.414C1318.34 253.921 1294.08 263.943 1289.62 264.56C1285.16 265.177 1240.16 234.623 1233.24 225.073Z" fill="url(#paint48_linear_370_537)"/>
<path d="M1223.89 259.065C1210.8 249.198 1203.08 221.162 1203.78 212.422C1204.06 208.905 1212.51 203.169 1216.08 202.678C1220.56 202.064 1240.1 216.769 1246.25 219.766C1252.4 222.764 1295.51 250.712 1303.59 254.968C1317.36 262.221 1288.64 267.322 1284.37 267.914C1276.56 268.995 1232.9 265.857 1223.89 259.065Z" fill="url(#paint49_linear_370_537)"/>
<path d="M1305.2 261.601C1300.65 262.737 1275.81 225.295 1272.85 211.916C1268.78 193.469 1261.78 151.904 1280.57 142.845C1291.54 137.557 1307.61 150.191 1317.82 163.561C1336.72 188.293 1337.56 205.613 1330.56 233.332C1326 251.402 1317.89 258.432 1305.2 261.601Z" fill="url(#paint50_linear_370_537)"/>
<path d="M852.5 524L822.529 527.535C765 453 731.617 389.181 689.214 195.667L709.709 225.289C732 344.5 787 452 852.5 524Z" fill="url(#paint51_linear_370_537)"/>
<path d="M743.141 239.48C741.031 252.717 734.064 259.605 730.538 264.508L673.675 207.461C673.481 203.125 673.574 194.194 675.499 193.16C677.907 191.867 682.955 191.142 687.201 190.937C691.446 190.731 697.689 181.798 705.349 183.498C711.478 184.858 722.98 191.528 724.512 195.176C726.144 192.634 728.793 189.505 730.712 188.895C733.11 188.133 738.072 192.713 740.949 195.142C743.825 197.57 741.501 210.007 741.68 215.316C741.858 220.625 744.027 233.921 743.141 239.48Z" fill="#FFD24D"/>
<path d="M676.801 243.323C670.251 229.899 667.105 203.92 669.838 198.917C670.389 197.909 671.569 197.283 673.051 196.963C676.737 196.17 682.291 197.276 684.681 199.126C688.87 202.369 687.698 208.672 694.53 209.489C704.584 210.692 706.538 199.315 711.07 197.786C714.087 196.769 724.053 198.234 730.698 213.451C735.801 225.139 735.825 246.78 732.166 259.49C731.061 263.327 729.906 266.026 728.908 266.873C724.607 270.527 711.764 273.203 706.306 271.455C700.24 269.513 683.334 256.711 676.801 243.323Z" fill="#FFB81A"/>
<path d="M728.636 391.596C743.003 403.428 772.94 453.859 786.112 477.596C762.573 446.389 745.627 441.55 712.945 417.208C686.43 397.459 660.578 368.136 652.283 336.241C674.96 356.934 715.231 380.557 728.636 391.596Z" fill="url(#paint52_linear_370_537)"/>
<path d="M-28.6919 489.693L-64.375 485.481C-63.6746 354.67 -36.6345 298.778 22.2976 180.726L36.6225 186.375C-12.5823 311.105 -27.3448 357.84 -28.6919 489.693Z" fill="url(#paint53_linear_370_537)"/>
<path d="M31.3422 208.497C23.5472 211.605 -0.760534 184.23 -4.75294 175.686L95.3247 115.264C101.103 113.918 109.564 113.168 113.751 114.824C118.985 116.895 122.746 118.802 124.765 125.234C126.783 131.667 98.2448 177.308 83.9453 188.752C66.5032 202.711 39.1373 205.388 31.3422 208.497Z" fill="url(#paint54_linear_370_537)"/>
<path d="M33.8173 76.9282C40.7942 71.3446 57.2551 58.1706 63.7423 57.8967C72.2692 57.5367 84.95 65.0668 93.8932 79.3698C102.836 93.6727 96.3883 108.371 95.7538 116.331C92.704 131.886 83.7433 164.066 77.8294 172.702C63.605 193.475 44.4721 202.528 31.7713 209.563C24.4301 213.63 -0.331458 185.297 -4.32387 176.752C-9.34139 166.014 -10.3261 148.024 -10.4915 138.321C-10.6569 128.617 -2.86394 114.332 1.87752 107.408C6.61897 100.484 25.0963 83.9078 33.8173 76.9282Z" fill="url(#paint55_linear_370_537)"/>
<path d="M184.461 614.336L150.588 616.474C132.54 514.511 172.971 358.628 201.511 260.291L215.78 263.11C194.341 371.543 165.448 503.798 184.461 614.336Z" fill="url(#paint56_linear_370_537)"/>
<path d="M217.66 238.894C211.81 245.944 176.565 232.671 168.919 226.64L219.13 135.668C232.903 126.952 236.581 108.592 241.249 107.969C247.084 107.19 264.699 111.279 269.896 122.684C275.61 135.224 272.236 175.301 264.138 193.694C254.26 216.129 223.51 231.844 217.66 238.894Z" fill="#B33B24"/>
<path d="M165.333 141.633C169.284 132.659 197.99 111.568 204.179 109.043C216.158 104.158 233.946 132.608 241.303 153.436C245.035 169.587 248.801 199.091 247.077 210.338C242.93 237.389 229.225 244.425 220.729 257.843C215.818 265.599 187.819 258.96 180.67 253.149C171.686 245.845 161.946 238.435 157.11 220.544C152.016 201.701 157.704 158.959 165.333 141.633Z" fill="url(#paint57_linear_370_537)"/>
<path d="M242.566 268.934C254.429 266.182 282.285 250.985 295.598 235.281C319.163 207.483 316.337 154.668 297.311 127.449C290.211 117.293 250.296 134.509 232.817 149.807C221.027 162.476 202.225 186.863 197.886 197.448C187.45 222.909 193.619 240.421 194.207 255.678C194.546 264.496 233.127 271.123 242.566 268.934Z" fill="url(#paint58_linear_370_537)"/>
<path d="M133.151 631.806C132.204 668.805 102.11 764.049 87.1815 807.046C101.629 738.105 92.801 700.889 92.1492 618.543C91.6203 551.735 102.087 479.505 129.976 440.493C126.28 500.307 134.034 597.289 133.151 631.806Z" fill="url(#paint59_linear_370_537)"/>
<path d="M547.961 444.512L564.548 449.059C583.998 400.322 579.98 318.812 575.939 267.08L568.569 267.011C568.047 323.021 568.772 391.62 547.961 444.512Z" fill="url(#paint60_linear_370_537)"/>
<path d="M570.128 254.801C572.305 258.901 591.16 255.942 595.574 253.737L580.023 203.429C574.085 197.687 574.15 188.198 571.898 187.408C569.083 186.421 559.922 186.637 556.169 191.761C552.043 197.395 549.592 217.629 551.718 227.589C554.31 239.738 567.951 250.701 570.128 254.801Z" fill="#B33B24"/>
<path d="M606.103 211.926C605.066 207.066 592.993 193.646 590.181 191.757C584.74 188.1 572.986 200.386 567.192 209.963C563.677 217.594 558.772 231.846 558.47 237.604C557.744 251.453 563.82 256.355 566.655 263.888C568.293 268.242 582.87 267.829 587.015 265.681C592.225 262.982 597.82 260.307 602.061 251.928C606.528 243.102 608.105 221.308 606.103 211.926Z" fill="url(#paint61_linear_370_537)"/>
<path d="M554.678 267.143C549.075 264.557 536.817 254.149 531.827 244.987C522.995 228.768 529.833 202.852 542.076 191.304C546.643 186.996 564.677 199.646 571.776 209.036C576.322 216.536 583.142 230.572 584.206 236.271C586.763 249.978 581.9 258.033 580.038 265.543C578.962 269.883 559.136 269.201 554.678 267.143Z" fill="url(#paint62_linear_370_537)"/>
<path d="M584.481 342.348C575.479 357.801 563.453 407.635 558.565 430.62C570.227 397.215 583.224 385.227 604.372 351.838C621.529 324.749 635.63 291.448 634.283 265.379C620.602 291.148 592.879 327.932 584.481 342.348Z" fill="url(#paint63_linear_370_537)"/>
<path d="M417.279 420.485L398.337 421.205C388.011 352.97 393.45 295.569 414.517 229.224L422.445 230.997C406.993 300.028 407.205 351.653 417.279 420.485Z" fill="url(#paint64_linear_370_537)"/>
<path d="M421.501 242.959C417.692 245.216 402.786 232.935 400.007 228.808L447.229 189.137C450.13 187.963 454.479 186.881 456.796 187.402C459.693 188.053 461.81 188.74 463.388 191.927C464.965 195.115 453.821 221.236 447.304 228.369C439.354 237.07 425.31 240.701 421.501 242.959Z" fill="url(#paint65_linear_370_537)"/>
<path d="M412.038 174.183C415.218 170.703 422.721 162.491 426.079 161.818C430.494 160.934 437.719 163.822 443.549 170.546C449.379 177.27 447.22 185.457 447.539 189.658C447.221 198.014 445.181 215.519 442.804 220.503C437.088 232.493 427.856 238.775 421.812 243.48C418.318 246.199 403.096 233.456 400.317 229.329C396.824 224.142 394.841 214.846 393.962 209.802C393.082 204.758 395.977 196.676 397.882 192.68C399.787 188.683 408.063 178.534 412.038 174.183Z" fill="url(#paint66_linear_370_537)"/>
<path d="M308.964 762.308L269.491 759.741C245.843 599.587 259.085 464.983 309.063 309.529L322.678 317.854C285.851 479.655 285.913 600.758 308.964 762.308Z" fill="url(#paint67_linear_370_537)"/>
<path d="M276.727 280.047C278.092 300.641 287.814 312.171 292.535 320.179L387.915 240.533C388.828 233.908 389.95 220.196 387.139 218.344C383.627 216.029 375.977 214.219 369.489 213.317C363 212.415 354.679 197.85 342.677 199.399C333.076 200.638 314.47 209.28 311.603 214.664C309.457 210.539 305.833 205.374 302.973 204.174C299.399 202.673 291.131 209.013 286.371 212.34C281.611 215.667 283.418 235.065 282.392 243.184C281.366 251.302 276.154 271.398 276.727 280.047Z" fill="#FFD24D"/>
<path d="M378.038 295.109C389.995 275.423 398.504 236.009 395.016 227.958C394.313 226.335 392.59 225.211 390.359 224.517C384.813 222.79 376.129 223.719 372.198 226.227C365.307 230.622 366.214 240.452 355.609 240.762C340.002 241.217 338.612 223.496 331.87 220.525C327.383 218.548 311.873 219.418 299.517 241.841C290.026 259.064 286.927 292.255 290.745 312.256C291.897 318.294 293.29 322.594 294.701 324.031C300.788 330.23 320.128 336.11 328.755 334.183C338.343 332.042 366.112 314.742 378.038 295.109Z" fill="#FFB81A"/>
<path d="M319.295 556.225C309.989 593.206 314.448 676.78 307.395 707.649C323.778 665.738 339.045 659.25 356.626 606.438C377.348 544.189 375.147 442.307 373.875 402.835C350.968 453.822 331.347 508.33 319.295 556.225Z" fill="url(#paint68_linear_370_537)"/>
<path d="M19.7553 773.011L-28.199 764.02C-15.2032 586.878 31.1822 445.922 121.892 291.429L140.779 300.399C62.6314 464.835 33.7232 594.516 19.7553 773.011Z" fill="url(#paint69_linear_370_537)"/>
<path d="M230.906 317.761C242.042 305.647 263.273 243.633 259.172 228.187C257.522 221.972 234.337 193.488 227.769 193.782C219.56 194.151 158.365 227.023 148.33 234.42C138.294 241.817 96.0487 322.74 86.83 336.602C77.6113 350.464 117.609 372.752 125.21 374.727C132.81 376.702 216.986 332.902 230.906 317.761Z" fill="url(#paint70_linear_370_537)"/>
<path d="M81.41 346.351C87.7214 344.824 91.4533 297.184 92.9165 278.323C96.6425 230.297 82.8213 182.715 67.1546 176.506C51.4877 170.297 35.8338 182.517 22.337 201.443C-0.0307295 232.808 2.76002 258.371 15.2836 292.348C24.1886 316.507 64.2623 350.5 81.41 346.351Z" fill="url(#paint71_linear_370_537)"/>
<path d="M240.209 378.553C264.893 364.115 283.955 317.107 284.523 301.822C284.752 295.673 271.279 284.02 265.18 282.443C257.557 280.471 220.712 301.98 209.448 305.925C198.184 309.87 117.813 349.539 102.953 355.272C77.6243 365.044 126.342 379.712 133.627 381.604C146.94 385.063 223.219 388.49 240.209 378.553Z" fill="url(#paint72_linear_370_537)"/>
<path d="M98.8176 366.437C106.474 369.331 157.114 309.504 164.949 286.923C175.751 255.789 196.313 185.195 165.601 165.686C147.674 154.298 117.266 172.924 96.8518 194.014C59.0896 233.027 54.1182 262.864 60.6162 312.311C64.8521 344.545 77.4816 358.372 98.8176 366.437Z" fill="url(#paint73_linear_370_537)"/>
<path d="M63.5759 533.555C36.6275 572.306 35.6519 622.421 31.4352 669.36C76.4833 603.944 67.7968 619.099 112.214 567.617C158.489 513.982 194.453 483.579 201.607 417.309C153.857 477.748 93.1402 491.041 63.5759 533.555Z" fill="url(#paint74_linear_370_537)"/>
<path d="M1001.23 774.18L1037.65 769.639C1058.5 584.027 1037.84 429.352 973.99 252.106L972.505 286.348C1018.08 458.705 1019.87 600.713 1001.23 774.18Z" fill="url(#paint75_linear_370_537)"/>
<path d="M912.192 255.563C907.266 248.023 901.368 212.632 904.968 204.659C906.417 201.451 921.493 188.151 925.013 188.9C929.412 189.835 959.506 213.078 964.261 217.973C969.016 222.868 984.564 270.356 988.298 278.668C992.032 286.981 968.434 295.426 964.152 295.81C959.871 296.194 918.349 264.989 912.192 255.563Z" fill="url(#paint76_linear_370_537)"/>
<path d="M990.35 284.419C987.079 283.028 989.34 256.969 990.242 246.653C992.541 220.385 1004.27 195.933 1013.29 193.986C1022.31 192.04 1029.66 200.043 1035.25 211.474C1044.52 230.418 1040.72 243.971 1030.9 261.194C1023.93 273.44 999.237 288.198 990.35 284.419Z" fill="url(#paint77_linear_370_537)"/>
<path d="M901.712 287.555C889.679 277.543 883.605 250.449 884.67 242.145C885.099 238.804 893.42 233.721 896.854 233.417C901.148 233.036 919.113 247.957 924.841 251.098C930.569 254.24 970.407 282.873 977.917 287.303C990.716 294.853 963.093 298.4 958.99 298.768C951.491 299.441 909.995 294.446 901.712 287.555Z" fill="url(#paint78_linear_370_537)"/>
<path d="M979.147 293.703C974.754 294.578 952.778 257.728 950.575 244.831C947.536 227.051 942.769 187.086 961.103 179.308C971.806 174.768 986.554 187.554 995.684 200.775C1012.57 225.23 1012.58 241.788 1004.63 267.905C999.453 284.93 991.392 291.263 979.147 293.703Z" fill="url(#paint79_linear_370_537)"/>
<path d="M1024.74 414.156C1019.22 461.513 1040.56 532.069 1043.39 571.502C1046.66 511.431 1042.75 482.953 1061.39 417.157C1076.52 363.775 1083.79 302.391 1069.42 261.843C1059.31 311.023 1030.57 364.183 1024.74 414.156Z" fill="url(#paint80_linear_370_537)"/>
<path d="M1191.17 880.063L1236.13 881.637C1256.38 745.692 1197.22 540.444 1155.84 410.977L1137.03 415.249C1168.83 556.044 1211.97 735.561 1191.17 880.063Z" fill="url(#paint81_linear_370_537)"/>
<path d="M1133.67 383.19C1141.67 392.325 1187.9 373.402 1197.82 365.117L1128.01 246.292C1109.44 235.242 1103.91 211.021 1097.7 210.368C1089.94 209.552 1066.74 215.633 1060.26 230.957C1053.14 247.807 1059.05 300.853 1070.45 324.953C1084.35 354.351 1125.66 374.055 1133.67 383.19Z" fill="#B33B24"/>
<path d="M1199.51 252.202C1193.96 240.443 1155.16 213.53 1146.86 210.412C1130.81 204.377 1108.26 242.785 1099.26 270.691C1094.9 292.259 1090.97 331.543 1093.66 346.4C1100.12 382.135 1118.54 390.959 1130.28 408.445C1137.07 418.552 1173.93 408.7 1183.2 400.724C1194.84 390.699 1207.48 380.505 1213.25 356.589C1219.32 331.399 1210.25 274.904 1199.51 252.202Z" fill="url(#paint82_linear_370_537)"/>
<path d="M1101.74 423.972C1085.92 420.764 1048.46 401.64 1030.25 381.301C998.024 345.298 999.869 275.122 1024.11 238.301C1033.15 224.562 1086.66 245.916 1110.38 265.561C1126.46 281.929 1152.25 313.584 1158.38 327.466C1173.13 360.857 1165.58 384.321 1165.35 404.584C1165.22 416.296 1114.33 426.526 1101.74 423.972Z" fill="url(#paint83_linear_370_537)"/>
<path d="M1233 543.201C1225 591.63 1247.41 722.448 1256.13 782.274C1254.51 688.783 1268.3 643.517 1289.68 536.439C1307.03 449.566 1311.42 352.811 1284.84 294.853C1274.73 373.701 1240.45 498.02 1233 543.201Z" fill="url(#paint84_linear_370_537)"/>
<path d="M1189.74 659.231C1207.84 702.824 1198.15 752.002 1192.3 798.765C1162.17 725.272 1167.44 741.926 1134.98 682.184C1101.15 619.943 1047.99 482.279 1055.08 416.002C1088.9 485.204 1169.88 611.408 1189.74 659.231Z" fill="url(#paint85_linear_370_537)"/>
<path d="M612.218 492.5L585.163 493.529C577 442.5 582.128 411.16 612.218 316.401L623.541 318.934C601.472 417.528 604.414 440.619 612.218 492.5Z" fill="url(#paint86_linear_370_537)"/>
<path d="M622.192 336.018C616.753 339.242 595.462 321.701 591.493 315.806L658.939 259.145C663.083 257.469 669.294 255.923 672.604 256.667C676.742 257.597 679.765 258.578 682.018 263.131C684.272 267.684 668.355 304.991 659.046 315.179C647.691 327.607 627.632 332.794 622.192 336.018Z" fill="url(#paint87_linear_370_537)"/>
<path d="M608.677 237.787C613.219 232.816 623.935 221.088 628.732 220.127C635.037 218.864 645.356 222.989 653.683 232.592C662.01 242.196 658.926 253.89 659.383 259.889C658.928 271.825 656.014 296.826 652.62 303.946C644.456 321.07 631.27 330.042 622.636 336.762C617.646 340.646 595.906 322.445 591.936 316.55C586.948 309.142 584.115 295.865 582.859 288.661C581.603 281.457 585.737 269.914 588.458 264.206C591.18 258.497 602.999 244.001 608.677 237.787Z" fill="url(#paint88_linear_370_537)"/>
<path d="M41.7523 956.462L-16.2444 973.811C-88.8608 803.738 -71.6818 676.428 -61.8706 493.818L-35.9337 492.98C-29.3143 690.256 -36.0013 771.881 41.7523 956.462Z" fill="url(#paint89_linear_370_537)"/>
<path d="M-42.4643 450.104C-49.7779 464.72 -116.395 455.817 -132.121 448.405L-81.6761 269.974C-61.268 249.272 -62.306 215.86 -54.4463 212.897C-44.6217 209.195 -12.357 209.218 1.28885 226.962C16.2929 246.473 26.6456 317.536 20.0144 352.785C11.9259 395.781 -35.1507 435.488 -42.4643 450.104Z" fill="#B33B24"/>
<path d="M-172.749 301.997C-169.514 284.799 -128.164 236.564 -118.43 229.683C-99.5902 216.366 -57.1679 258.691 -35.9557 291.954C-22.9343 318.544 -4.45237 368.344 -2.89807 388.599C0.840397 437.317 -20.128 455.07 -29.4628 481.827C-34.8584 497.293 -86.2012 497.013 -100.975 489.782C-119.542 480.694 -139.466 471.725 -155.109 442.554C-171.586 411.83 -178.995 335.202 -172.749 301.997Z" fill="url(#paint90_linear_370_537)"/>
<path d="M12.9717 492.329C32.4728 482.769 74.7311 445.129 91.5112 412.458C121.214 354.626 94.9342 263.904 50.8571 224.218C34.4111 209.411 -27.9859 255.417 -52.1714 289.058C-67.5322 315.837 -90.3392 365.819 -93.5959 385.976C-101.429 434.459 -83.6231 462.435 -76.4288 488.734C-72.2704 503.935 -2.54511 499.935 12.9717 492.329Z" fill="url(#paint91_linear_370_537)"/>
<path d="M535.73 486.636L513.851 497.975C469.496 431.194 467.904 370.604 462.689 258.695L474.493 284.575C492.455 386.998 496.984 428.661 535.73 486.636Z" fill="url(#paint92_linear_370_537)"/>
<path d="M514.029 284.167C515.532 276.752 509.137 247.575 503.847 242.613C501.718 240.616 485.809 235.301 483.293 237.027C480.147 239.185 463.869 266.912 461.677 272.235C459.485 277.557 462.103 319.201 461.771 326.821C461.439 334.441 482.495 333.235 485.958 332.132C489.421 331.029 512.15 293.436 514.029 284.167Z" fill="url(#paint93_linear_370_537)"/>
<path d="M461.956 331.919C464.078 329.779 454.212 310.453 450.3 302.805C440.339 283.331 423.574 268.337 415.927 269.784C408.279 271.231 405.022 279.796 404.21 290.424C402.864 308.036 410.046 317.23 423.063 327.285C432.319 334.435 456.19 337.732 461.956 331.919Z" fill="url(#paint94_linear_370_537)"/>
<path d="M532.158 305.376C538.444 293.736 534.766 270.89 531.353 264.844C529.979 262.412 521.9 261.217 519.123 262.104C515.652 263.214 506.259 280.572 502.762 284.862C499.264 289.152 477.051 324.214 472.563 330.078C464.913 340.072 487.59 333.78 490.909 332.723C496.975 330.791 527.832 313.388 532.158 305.376Z" fill="url(#paint95_linear_370_537)"/>
<path d="M473.591 335.407C477.295 334.646 483.003 299.093 480.715 288.444C477.561 273.76 468.861 241.431 452.123 241.432C442.353 241.433 434.81 256.096 431.788 269.259C426.2 293.606 431.342 306.357 445.667 323.87C455.005 335.286 463.269 337.529 473.591 335.407Z" fill="url(#paint96_linear_370_537)"/>
<path d="M459.411 374.765C480.967 399.299 496.95 463.157 510.847 490.445C485.54 455.876 476.523 434.444 440.59 410.486C411.436 391.049 383.434 359.351 375.396 320.711C400.169 342.149 436.663 348.877 459.411 374.765Z" fill="url(#paint97_linear_370_537)"/>
<path d="M781.498 532.09L808 526.5C808 461.5 803.798 389.1 754.765 288.62L756.084 308.917C794.02 407.685 780.968 474.398 781.498 532.09Z" fill="url(#paint98_linear_370_537)"/>
<path d="M718.527 294.62C715.137 290.487 709.389 269.985 711.002 265.05C711.651 263.065 719.693 254.252 721.818 254.468C724.474 254.738 743.718 266.522 746.837 269.105C749.957 271.688 762.174 298.709 764.91 303.374C767.645 308.039 754.264 314.534 751.762 315.035C749.261 315.536 722.764 299.787 718.527 294.62Z" fill="url(#paint99_linear_370_537)"/>
<path d="M766.488 306.635C764.47 306.024 764.133 290.505 764.004 284.361C763.677 268.716 769.032 253.537 774.227 251.811C779.423 250.084 784.275 254.335 788.306 260.721C794.985 271.304 793.611 279.543 788.926 290.333C785.595 298.006 771.974 308.295 766.488 306.635Z" fill="url(#paint100_linear_370_537)"/>
<path d="M714.394 314.167C706.653 309.031 701.333 293.435 701.429 288.468C701.468 286.469 706.051 282.937 708.058 282.537C710.567 282.038 722.122 289.689 725.703 291.175C729.284 292.662 754.623 307.002 759.338 309.134C767.374 312.768 751.304 316.631 748.906 317.111C744.525 317.989 719.722 317.701 714.394 314.167Z" fill="url(#paint101_linear_370_537)"/>
<path d="M760.474 312.831C757.938 313.629 742.611 293.296 740.484 285.829C737.552 275.533 732.178 252.26 742.496 246.496C748.52 243.131 758.04 249.73 764.275 256.944C775.806 270.29 776.872 280.059 773.857 295.977C771.892 306.353 767.542 310.606 760.474 312.831Z" fill="url(#paint102_linear_370_537)"/>
<path d="M791.258 355.5C787.674 383.652 799.893 425.297 801.319 448.664C803.648 412.991 801.509 396.135 813.001 356.909C822.324 325.085 811.452 269.809 803.181 245.898C796.862 275.178 795.04 325.792 791.258 355.5Z" fill="url(#paint103_linear_370_537)"/>
<path d="M113.323 882.89L86.6345 866.991C88.3252 717.108 167.669 535.891 234.234 404.503L231.854 434.263C177.198 570.441 115.707 735.225 113.323 882.89Z" fill="url(#paint104_linear_370_537)"/>
<path d="M268.05 379.809C269.421 383.006 268.537 397.346 269.317 403.295L231.369 388.988C232.641 384.318 235.805 374.012 238.285 370.153C241.384 365.33 261.076 359.649 261.674 361.722L263.169 366.904C264.535 369.691 266.678 376.612 268.05 379.809Z" fill="url(#paint105_linear_370_537)"/>
<path d="M234.074 402.129C240.422 393.001 261.707 380.679 271.045 381.915C274.722 390.771 271.226 407.986 263.78 416.421C254.472 426.965 229.618 434.843 225.014 430.558C220.41 426.273 227.877 411.041 234.074 402.129Z" fill="#708033"/>
<path d="M249.106 407.714C255.987 399.319 243.651 372.628 236.682 366.292C227.543 369.197 220.254 387.878 218.614 399.009C216.565 412.924 225.824 428.365 232.068 429.117C238.313 429.87 242.225 416.108 249.106 407.714Z" fill="#708033"/>
<path d="M612.683 546.927L596.152 546.813C556.582 477.559 544.222 373.018 539.408 294.789L546.327 309.091C557.896 386.312 574.028 478.504 612.683 546.927Z" fill="url(#paint106_linear_370_537)"/>
<path d="M549.283 283.351C550.773 284.449 554.227 291.269 556.187 293.79L534.917 297.438C534.244 294.952 532.922 289.369 533.021 286.931C533.146 283.882 540.656 275.974 541.488 276.764L543.569 278.741C544.946 279.653 547.793 282.252 549.283 283.351Z" fill="url(#paint107_linear_370_537)"/>
<path d="M539.696 302.742C540.153 296.843 546.606 285.458 551.225 283.511C555.297 286.587 558.326 295.43 557.179 301.306C555.745 308.651 546.457 318.958 543.19 318.231C539.923 317.503 539.25 308.501 539.696 302.742Z" fill="#708033"/>
<path d="M548.099 301.259C548.998 295.554 536.151 286.623 531.246 285.59C527.833 289.383 529.516 299.921 531.76 305.472C534.565 312.41 542.971 317.006 546.04 315.67C549.109 314.335 547.2 306.964 548.099 301.259Z" fill="#708033"/>
<path d="M891.718 541.453L872.353 547.932C846.099 491.436 845.511 394.549 846.905 332.961L855.638 332.394C859.933 398.756 863.577 480.12 891.718 541.453Z" fill="url(#paint108_linear_370_537)"/>
<path d="M849.988 318.023C847.676 323.026 825.132 320.757 819.754 318.432L834.887 257.776C841.548 250.579 840.848 239.335 843.466 238.252C846.739 236.897 857.613 236.551 862.397 242.379C867.658 248.787 871.891 272.611 870.025 284.557C867.75 299.129 852.3 313.02 849.988 318.023Z" fill="#B33B24"/>
<path d="M804.529 269.56C805.439 263.731 818.87 247.031 822.078 244.606C828.288 239.914 843.028 253.707 850.526 264.679C855.192 273.494 861.943 290.066 862.679 296.872C864.449 313.242 857.568 319.452 854.702 328.567C853.045 333.835 835.739 334.303 830.684 332.029C824.332 329.171 817.523 326.368 811.945 316.713C806.071 306.544 802.771 280.813 804.529 269.56Z" fill="url(#paint109_linear_370_537)"/>
<path d="M869.113 331.64C875.585 328.206 889.433 315.064 894.746 303.876C904.151 284.07 894.344 253.798 879.074 240.913C873.376 236.105 852.829 252.285 845.03 263.881C840.134 273.07 832.971 290.156 832.084 296.981C829.952 313.399 836.246 322.627 838.946 331.407C840.506 336.482 863.963 334.372 869.113 331.64Z" fill="url(#paint110_linear_370_537)"/>
<path d="M1039.97 773.994L1071.71 755.089C1069.7 576.87 1035.35 521.392 956.202 365.163L959.032 400.551C1024.02 562.474 1037.14 598.412 1039.97 773.994Z" fill="url(#paint111_linear_370_537)"/>
<path d="M915.993 335.801C914.362 339.602 915.414 356.653 914.486 363.728L959.609 346.716C958.096 341.162 954.333 328.908 951.385 324.32C947.7 318.584 924.284 311.83 923.573 314.294L921.796 320.456C920.173 323.77 917.623 331.999 915.993 335.801Z" fill="url(#paint112_linear_370_537)"/>
<path d="M956.392 362.341C948.844 351.487 923.535 336.836 912.431 338.305C908.059 348.836 912.216 369.305 921.07 379.335C932.138 391.872 961.691 401.24 967.165 396.145C972.64 391.049 963.761 372.937 956.392 362.341Z" fill="#708033"/>
<path d="M938.518 368.981C930.336 359 945.005 327.263 953.291 319.728C964.158 323.182 972.825 345.395 974.775 358.631C977.211 375.176 966.202 393.537 958.777 394.431C951.352 395.326 946.7 378.963 938.518 368.981Z" fill="#708033"/>
<path d="M1000.17 517.781C1015.1 539.258 1029.68 616.063 1035.11 651.781C1018.23 601.894 994.778 587.898 959.175 542.244C930.29 505.204 908.578 456.569 916.022 413.003C938.288 449.41 986.243 497.744 1000.17 517.781Z" fill="url(#paint113_linear_370_537)"/>
<path d="M1351.96 932.014C1369.87 840.616 1322.66 515.386 1295.16 362L1283.5 401.397C1306.79 556.615 1336.21 756.816 1327.59 862.717C1322.56 924.5 1347.65 954 1351.96 932.014Z" fill="url(#paint114_linear_370_537)"/>
<path d="M1208.93 434.085C1222.95 470.307 1246.8 485.872 1259.73 497.752L1385.32 304.706C1383.22 292.344 1377.52 267.158 1371.45 265.314C1363.88 263.009 1349.2 263.788 1337.1 265.584C1325 267.38 1301.95 245.632 1281.38 254.725C1264.93 261.999 1236.56 287.29 1234.46 298.455C1228.31 292.186 1218.93 284.828 1213.15 284.179C1205.92 283.368 1194.72 299.09 1188.09 307.563C1181.45 316.035 1195.59 349.88 1198.32 364.982C1201.05 380.084 1203.04 418.872 1208.93 434.085Z" fill="#FFD24D"/>
<path d="M1398.36 407.797C1408.65 366.194 1401.69 291.02 1390.93 278.413C1388.76 275.872 1385.05 274.763 1380.68 274.691C1369.8 274.513 1354.81 280.748 1349.2 287.314C1339.36 298.823 1346.51 315.98 1327.74 322.114C1300.12 331.142 1287.67 300.087 1273.96 298.306C1264.83 297.12 1237.62 306.841 1228.16 353.561C1220.89 389.449 1234.01 450.615 1252.08 484.484C1257.53 494.707 1262.44 501.687 1265.77 503.523C1280.12 511.44 1317.97 511.81 1332.3 503.815C1348.22 494.929 1388.1 449.288 1398.36 407.797Z" fill="#FFB81A"/>
</g>
<defs>
<linearGradient id="paint0_linear_370_537" x1="1105.59" y1="183.953" x2="1065.74" y2="331.238" gradientUnits="userSpaceOnUse">
<stop stop-color="#708033"/>
<stop offset="0.791667" stop-color="#94A64B"/>
</linearGradient>
<linearGradient id="paint1_linear_370_537" x1="1129.02" y1="118.418" x2="1101.06" y2="181.436" gradientUnits="userSpaceOnUse">
<stop offset="0.541667" stop-color="#F25030"/>
<stop offset="1" stop-color="#A63620"/>
<stop offset="1" stop-color="#B33B24"/>
</linearGradient>
<linearGradient id="paint2_linear_370_537" x1="1100.04" y1="205.34" x2="1056.42" y2="92.1148" gradientUnits="userSpaceOnUse">
<stop offset="0.148139" stop-color="#B33B24"/>
<stop offset="0.322515" stop-color="#F25030"/>
</linearGradient>
<linearGradient id="paint3_linear_370_537" x1="309.826" y1="149.678" x2="315.892" y2="326.973" gradientUnits="userSpaceOnUse">
<stop stop-color="#708033"/>
<stop offset="0.791667" stop-color="#94A64B"/>
</linearGradient>
<linearGradient id="paint4_linear_370_537" x1="328.719" y1="113.693" x2="324.884" y2="131.73" gradientUnits="userSpaceOnUse">
<stop stop-color="#FFB81A"/>
<stop offset="1" stop-color="#FFD24D"/>
</linearGradient>
<linearGradient id="paint5_linear_370_537" x1="331.449" y1="171.161" x2="330.811" y2="246.069" gradientUnits="userSpaceOnUse">
<stop stop-color="#708033"/>
<stop offset="0.791667" stop-color="#94A64B"/>
</linearGradient>
<linearGradient id="paint6_linear_370_537" x1="895.427" y1="226.508" x2="875.931" y2="373.368" gradientUnits="userSpaceOnUse">
<stop stop-color="#708033"/>
<stop offset="0.791667" stop-color="#94A64B"/>
</linearGradient>
<linearGradient id="paint7_linear_370_537" x1="889.946" y1="225.792" x2="855.966" y2="180.051" gradientUnits="userSpaceOnUse">
<stop offset="0.486081" stop-color="#FFB81A"/>
<stop offset="1" stop-color="#FFD24D"/>
</linearGradient>
<linearGradient id="paint8_linear_370_537" x1="889.615" y1="230.489" x2="889.315" y2="189.331" gradientUnits="userSpaceOnUse">
<stop stop-color="#FFB81A"/>
<stop offset="1" stop-color="#FFD24D"/>
</linearGradient>
<linearGradient id="paint9_linear_370_537" x1="830.633" y1="233.17" x2="904.477" y2="423.428" gradientUnits="userSpaceOnUse">
<stop stop-color="#708033"/>
<stop offset="0.791667" stop-color="#94A64B"/>
</linearGradient>
<linearGradient id="paint10_linear_370_537" x1="836.503" y1="186.919" x2="839.179" y2="207.964" gradientUnits="userSpaceOnUse">
<stop stop-color="#FFB81A"/>
<stop offset="1" stop-color="#FFD24D"/>
</linearGradient>
<linearGradient id="paint11_linear_370_537" x1="862.905" y1="248.248" x2="890.628" y2="329.848" gradientUnits="userSpaceOnUse">
<stop stop-color="#708033"/>
<stop offset="0.791667" stop-color="#94A64B"/>
</linearGradient>
<linearGradient id="paint12_linear_370_537" x1="1229.89" y1="225.906" x2="1279.76" y2="492.543" gradientUnits="userSpaceOnUse">
<stop stop-color="#708033"/>
<stop offset="0.791667" stop-color="#94A64B"/>
</linearGradient>
<linearGradient id="paint13_linear_370_537" x1="1219.94" y1="227.788" x2="1134.72" y2="167.593" gradientUnits="userSpaceOnUse">
<stop offset="0.486081" stop-color="#FFB81A"/>
<stop offset="1" stop-color="#FFD24D"/>
</linearGradient>
<linearGradient id="paint14_linear_370_537" x1="1222.05" y1="236.149" x2="1198.04" y2="164.711" gradientUnits="userSpaceOnUse">
<stop stop-color="#FFB81A"/>
<stop offset="1" stop-color="#FFD24D"/>
</linearGradient>
<linearGradient id="paint15_linear_370_537" x1="1275.99" y1="110.113" x2="1481.6" y2="413.77" gradientUnits="userSpaceOnUse">
<stop stop-color="#708033"/>
<stop offset="0.791667" stop-color="#94A64B"/>
</linearGradient>
<linearGradient id="paint16_linear_370_537" x1="633.812" y1="191.266" x2="597.164" y2="402.045" gradientUnits="userSpaceOnUse">
<stop stop-color="#708033"/>
<stop offset="0.791667" stop-color="#94A64B"/>
</linearGradient>
<linearGradient id="paint17_linear_370_537" x1="611.918" y1="163.515" x2="623.603" y2="204.157" gradientUnits="userSpaceOnUse">
<stop stop-color="#FF9666"/>
<stop offset="0.729167" stop-color="#F26E30"/>
</linearGradient>
<linearGradient id="paint18_linear_370_537" x1="632.383" y1="202.091" x2="653.822" y2="169.526" gradientUnits="userSpaceOnUse">
<stop offset="0.208333" stop-color="#F26E30"/>
<stop offset="0.979167" stop-color="#FF9666"/>
</linearGradient>
<linearGradient id="paint19_linear_370_537" x1="614.144" y1="199.114" x2="585.232" y2="162.921" gradientUnits="userSpaceOnUse">
<stop stop-color="#F26E30"/>
<stop offset="1" stop-color="#FF9666"/>
</linearGradient>
<linearGradient id="paint20_linear_370_537" x1="628.24" y1="203.556" x2="637.002" y2="157.093" gradientUnits="userSpaceOnUse">
<stop stop-color="#F26E30"/>
<stop offset="1" stop-color="#FF9666"/>
</linearGradient>
<linearGradient id="paint21_linear_370_537" x1="370.805" y1="187.313" x2="407.028" y2="424.083" gradientUnits="userSpaceOnUse">
<stop stop-color="#708033"/>
<stop offset="0.791667" stop-color="#94A64B"/>
</linearGradient>
<linearGradient id="paint22_linear_370_537" x1="402.552" y1="131.217" x2="384.535" y2="189.565" gradientUnits="userSpaceOnUse">
<stop stop-color="#FF9666"/>
<stop offset="0.729167" stop-color="#F26E30"/>
</linearGradient>
<linearGradient id="paint23_linear_370_537" x1="371.918" y1="186.334" x2="341.885" y2="138.713" gradientUnits="userSpaceOnUse">
<stop offset="0.208333" stop-color="#F26E30"/>
<stop offset="0.979167" stop-color="#FF9666"/>
</linearGradient>
<linearGradient id="paint24_linear_370_537" x1="398.335" y1="182.55" x2="441.098" y2="131.113" gradientUnits="userSpaceOnUse">
<stop stop-color="#F26E30"/>
<stop offset="1" stop-color="#FF9666"/>
</linearGradient>
<linearGradient id="paint25_linear_370_537" x1="377.858" y1="188.567" x2="366.519" y2="121.238" gradientUnits="userSpaceOnUse">
<stop stop-color="#F26E30"/>
<stop offset="1" stop-color="#FF9666"/>
</linearGradient>
<linearGradient id="paint26_linear_370_537" x1="330.886" y1="237.099" x2="333.881" y2="426.39" gradientUnits="userSpaceOnUse">
<stop stop-color="#708033"/>
<stop offset="0.791667" stop-color="#94A64B"/>
</linearGradient>
<linearGradient id="paint27_linear_370_537" x1="496.315" y1="193.947" x2="595.862" y2="402.363" gradientUnits="userSpaceOnUse">
<stop stop-color="#708033"/>
<stop offset="0.791667" stop-color="#94A64B"/>
</linearGradient>
<linearGradient id="paint28_linear_370_537" x1="96.3353" y1="77.227" x2="72.2975" y2="168.007" gradientUnits="userSpaceOnUse">
<stop stop-color="#708033"/>
<stop offset="0.791667" stop-color="#94A64B"/>
</linearGradient>
<linearGradient id="paint29_linear_370_537" x1="114.281" y1="9.84272" x2="108.743" y2="59.821" gradientUnits="userSpaceOnUse">
<stop offset="0.541667" stop-color="#F25030"/>
<stop offset="1" stop-color="#A63620"/>
<stop offset="1" stop-color="#B33B24"/>
</linearGradient>
<linearGradient id="paint30_linear_370_537" x1="99.5712" y1="75.1433" x2="169.625" y2="17.752" gradientUnits="userSpaceOnUse">
<stop offset="0.148139" stop-color="#B33B24"/>
<stop offset="0.322515" stop-color="#F25030"/>
</linearGradient>
<linearGradient id="paint31_linear_370_537" x1="771.128" y1="231.397" x2="790.298" y2="351.324" gradientUnits="userSpaceOnUse">
<stop stop-color="#708033"/>
<stop offset="0.791667" stop-color="#94A64B"/>
</linearGradient>
<linearGradient id="paint32_linear_370_537" x1="757.313" y1="162.127" x2="774.396" y2="219.018" gradientUnits="userSpaceOnUse">
<stop offset="0.541667" stop-color="#F25030"/>
<stop offset="1" stop-color="#A63620"/>
<stop offset="1" stop-color="#B33B24"/>
</linearGradient>
<linearGradient id="paint33_linear_370_537" x1="771.508" y1="239.915" x2="821.134" y2="145.142" gradientUnits="userSpaceOnUse">
<stop offset="0.148139" stop-color="#B33B24"/>
<stop offset="0.322515" stop-color="#F25030"/>
</linearGradient>
<linearGradient id="paint34_linear_370_537" x1="0.366043" y1="53.6013" x2="-6.16503" y2="404.424" gradientUnits="userSpaceOnUse">
<stop stop-color="#708033"/>
<stop offset="0.791667" stop-color="#94A64B"/>
</linearGradient>
<linearGradient id="paint35_linear_370_537" x1="48.2029" y1="16.5228" x2="18.5867" y2="78.8748" gradientUnits="userSpaceOnUse">
<stop stop-color="#FF9666"/>
<stop offset="0.729167" stop-color="#F26E30"/>
</linearGradient>
<linearGradient id="paint36_linear_370_537" x1="4.99603" y1="73.2146" x2="-20.8807" y2="15.072" gradientUnits="userSpaceOnUse">
<stop offset="0.208333" stop-color="#F26E30"/>
<stop offset="0.979167" stop-color="#FF9666"/>
</linearGradient>
<linearGradient id="paint37_linear_370_537" x1="35.1609" y1="73.2649" x2="91.3393" y2="22.6565" gradientUnits="userSpaceOnUse">
<stop stop-color="#F26E30"/>
<stop offset="1" stop-color="#FF9666"/>
</linearGradient>
<linearGradient id="paint38_linear_370_537" x1="11.279" y1="76.675" x2="9.51121" y2="-0.482599" gradientUnits="userSpaceOnUse">
<stop stop-color="#F26E30"/>
<stop offset="1" stop-color="#FF9666"/>
</linearGradient>
<linearGradient id="paint39_linear_370_537" x1="-33.3258" y1="394.569" x2="-81.2981" y2="655.398" gradientUnits="userSpaceOnUse">
<stop stop-color="#708033"/>
<stop offset="0.791667" stop-color="#94A64B"/>
</linearGradient>
<linearGradient id="paint40_linear_370_537" x1="153.972" y1="100.209" x2="91.9511" y2="322.651" gradientUnits="userSpaceOnUse">
<stop stop-color="#708033"/>
<stop offset="0.791667" stop-color="#94A64B"/>
</linearGradient>
<linearGradient id="paint41_linear_370_537" x1="103.461" y1="125.873" x2="109.527" y2="303.167" gradientUnits="userSpaceOnUse">
<stop stop-color="#708033"/>
<stop offset="0.791667" stop-color="#94A64B"/>
</linearGradient>
<linearGradient id="paint42_linear_370_537" x1="122.354" y1="89.8874" x2="118.519" y2="107.924" gradientUnits="userSpaceOnUse">
<stop stop-color="#FFB81A"/>
<stop offset="1" stop-color="#FFD24D"/>
</linearGradient>
<linearGradient id="paint43_linear_370_537" x1="1025.69" y1="160.768" x2="1065.36" y2="453.806" gradientUnits="userSpaceOnUse">
<stop stop-color="#708033"/>
<stop offset="0.791667" stop-color="#94A64B"/>
</linearGradient>
<linearGradient id="paint44_linear_370_537" x1="1138.15" y1="204.873" x2="1132.08" y2="382.167" gradientUnits="userSpaceOnUse">
<stop stop-color="#708033"/>
<stop offset="0.791667" stop-color="#94A64B"/>
</linearGradient>
<linearGradient id="paint45_linear_370_537" x1="1119.26" y1="168.887" x2="1123.09" y2="186.924" gradientUnits="userSpaceOnUse">
<stop stop-color="#FFB81A"/>
<stop offset="1" stop-color="#FFD24D"/>
</linearGradient>
<linearGradient id="paint46_linear_370_537" x1="1116.53" y1="227.356" x2="1117.16" y2="302.264" gradientUnits="userSpaceOnUse">
<stop stop-color="#708033"/>
<stop offset="0.791667" stop-color="#94A64B"/>
</linearGradient>
<linearGradient id="paint47_linear_370_537" x1="1303.5" y1="232" x2="1338.5" y2="486.5" gradientUnits="userSpaceOnUse">
<stop stop-color="#708033"/>
<stop offset="0.791667" stop-color="#94A64B"/>
</linearGradient>
<linearGradient id="paint48_linear_370_537" x1="1231.26" y1="160.794" x2="1300.22" y2="263.093" gradientUnits="userSpaceOnUse">
<stop stop-color="#FF9666"/>
<stop offset="0.729167" stop-color="#F26E30"/>
</linearGradient>
<linearGradient id="paint49_linear_370_537" x1="1269.43" y1="257.596" x2="1156.66" y2="183.13" gradientUnits="userSpaceOnUse">
<stop stop-color="#F26E30"/>
<stop offset="1" stop-color="#FF9666"/>
</linearGradient>
<linearGradient id="paint50_linear_370_537" x1="1312.54" y1="257.258" x2="1295.11" y2="120.43" gradientUnits="userSpaceOnUse">
<stop stop-color="#F26E30"/>
<stop offset="1" stop-color="#FF9666"/>
</linearGradient>
<linearGradient id="paint51_linear_370_537" x1="684.766" y1="225.774" x2="842.461" y2="510.416" gradientUnits="userSpaceOnUse">
<stop stop-color="#708033"/>
<stop offset="0.791667" stop-color="#94A64B"/>
</linearGradient>
<linearGradient id="paint52_linear_370_537" x1="668.257" y1="341.26" x2="748.6" y2="484.426" gradientUnits="userSpaceOnUse">
<stop stop-color="#708033"/>
<stop offset="0.791667" stop-color="#94A64B"/>
</linearGradient>
<linearGradient id="paint53_linear_370_537" x1="14.1128" y1="196.545" x2="-29.7799" y2="479.307" gradientUnits="userSpaceOnUse">
<stop stop-color="#708033"/>
<stop offset="0.791667" stop-color="#94A64B"/>
</linearGradient>
<linearGradient id="paint54_linear_370_537" x1="25.2264" y1="201.413" x2="128.954" y2="128.234" gradientUnits="userSpaceOnUse">
<stop offset="0.486081" stop-color="#FFB81A"/>
<stop offset="1" stop-color="#FFD24D"/>
</linearGradient>
<linearGradient id="paint55_linear_370_537" x1="22.6589" y1="211.584" x2="51.9166" y2="124.682" gradientUnits="userSpaceOnUse">
<stop stop-color="#FFB81A"/>
<stop offset="1" stop-color="#FFD24D"/>
</linearGradient>
<linearGradient id="paint56_linear_370_537" x1="191.385" y1="280.765" x2="209.09" y2="598.868" gradientUnits="userSpaceOnUse">
<stop stop-color="#708033"/>
<stop offset="0.791667" stop-color="#94A64B"/>
</linearGradient>
<linearGradient id="paint57_linear_370_537" x1="178.572" y1="44.5332" x2="213.149" y2="211.588" gradientUnits="userSpaceOnUse">
<stop offset="0.541667" stop-color="#F25030"/>
<stop offset="1" stop-color="#A63620"/>
<stop offset="1" stop-color="#B33B24"/>
</linearGradient>
<linearGradient id="paint58_linear_370_537" x1="199.637" y1="270.646" x2="365.428" y2="11.976" gradientUnits="userSpaceOnUse">
<stop offset="0.148139" stop-color="#B33B24"/>
<stop offset="0.322515" stop-color="#F25030"/>
</linearGradient>
<linearGradient id="paint59_linear_370_537" x1="137.798" y1="475.894" x2="-41.2738" y2="637.601" gradientUnits="userSpaceOnUse">
<stop stop-color="#708033"/>
<stop offset="0.791667" stop-color="#94A64B"/>
</linearGradient>
<linearGradient id="paint60_linear_370_537" x1="578.857" y1="278.281" x2="537.332" y2="434.301" gradientUnits="userSpaceOnUse">
<stop stop-color="#708033"/>
<stop offset="0.791667" stop-color="#94A64B"/>
</linearGradient>
<linearGradient id="paint61_linear_370_537" x1="609.527" y1="162.382" x2="575.176" y2="241.716" gradientUnits="userSpaceOnUse">
<stop offset="0.541667" stop-color="#F25030"/>
<stop offset="1" stop-color="#A63620"/>
<stop offset="1" stop-color="#B33B24"/>
</linearGradient>
<linearGradient id="paint62_linear_370_537" x1="575.803" y1="272.411" x2="520.16" y2="126.996" gradientUnits="userSpaceOnUse">
<stop offset="0.148139" stop-color="#B33B24"/>
<stop offset="0.322515" stop-color="#F25030"/>
</linearGradient>
<linearGradient id="paint63_linear_370_537" x1="622.151" y1="276.991" x2="639.385" y2="409.931" gradientUnits="userSpaceOnUse">
<stop stop-color="#708033"/>
<stop offset="0.791667" stop-color="#94A64B"/>
</linearGradient>
<linearGradient id="paint64_linear_370_537" x1="411.24" y1="239.558" x2="406.027" y2="413.601" gradientUnits="userSpaceOnUse">
<stop stop-color="#708033"/>
<stop offset="0.791667" stop-color="#94A64B"/>
</linearGradient>
<linearGradient id="paint65_linear_370_537" x1="417.734" y1="239.767" x2="465.816" y2="193.149" gradientUnits="userSpaceOnUse">
<stop offset="0.486081" stop-color="#FFB81A"/>
<stop offset="1" stop-color="#FFD24D"/>
</linearGradient>
<linearGradient id="paint66_linear_370_537" x1="417.227" y1="245.278" x2="425.374" y2="197.593" gradientUnits="userSpaceOnUse">
<stop stop-color="#FFB81A"/>
<stop offset="1" stop-color="#FFD24D"/>
</linearGradient>
<linearGradient id="paint67_linear_370_537" x1="296.502" y1="335.553" x2="277.834" y2="743.705" gradientUnits="userSpaceOnUse">
<stop stop-color="#708033"/>
<stop offset="0.791667" stop-color="#94A64B"/>
</linearGradient>
<linearGradient id="paint68_linear_370_537" x1="363.341" y1="417.369" x2="211.542" y2="607.662" gradientUnits="userSpaceOnUse">
<stop stop-color="#708033"/>
<stop offset="0.791667" stop-color="#94A64B"/>
</linearGradient>
<linearGradient id="paint69_linear_370_537" x1="107.774" y1="315.497" x2="-4.53498" y2="749.328" gradientUnits="userSpaceOnUse">
<stop stop-color="#708033"/>
<stop offset="0.791667" stop-color="#94A64B"/>
</linearGradient>
<linearGradient id="paint70_linear_370_537" x1="247.39" y1="206.795" x2="107.15" y2="370.035" gradientUnits="userSpaceOnUse">
<stop stop-color="#FF9666"/>
<stop offset="0.729167" stop-color="#F26E30"/>
</linearGradient>
<linearGradient id="paint71_linear_370_537" x1="70.9169" y1="341.86" x2="40.7929" y2="145.748" gradientUnits="userSpaceOnUse">
<stop offset="0.208333" stop-color="#F26E30"/>
<stop offset="0.979167" stop-color="#FF9666"/>
</linearGradient>
<linearGradient id="paint72_linear_370_537" x1="161.605" y1="366.762" x2="372.102" y2="260.639" gradientUnits="userSpaceOnUse">
<stop stop-color="#F26E30"/>
<stop offset="1" stop-color="#FF9666"/>
</linearGradient>
<linearGradient id="paint73_linear_370_537" x1="86.975" y1="357.423" x2="144.967" y2="123.9" gradientUnits="userSpaceOnUse">
<stop stop-color="#F26E30"/>
<stop offset="1" stop-color="#FF9666"/>
</linearGradient>
<linearGradient id="paint74_linear_370_537" x1="178.801" y1="427.395" x2="55.7172" y2="660.474" gradientUnits="userSpaceOnUse">
<stop stop-color="#708033"/>
<stop offset="0.791667" stop-color="#94A64B"/>
</linearGradient>
<linearGradient id="paint75_linear_370_537" x1="998.899" y1="284.442" x2="1043.97" y2="747.832" gradientUnits="userSpaceOnUse">
<stop stop-color="#708033"/>
<stop offset="0.791667" stop-color="#94A64B"/>
</linearGradient>
<linearGradient id="paint76_linear_370_537" x1="913.25" y1="194.165" x2="974.325" y2="294.897" gradientUnits="userSpaceOnUse">
<stop stop-color="#FF9666"/>
<stop offset="0.729167" stop-color="#F26E30"/>
</linearGradient>
<linearGradient id="paint77_linear_370_537" x1="996.419" y1="282.936" x2="1030.29" y2="179.743" gradientUnits="userSpaceOnUse">
<stop offset="0.208333" stop-color="#F26E30"/>
<stop offset="0.979167" stop-color="#FF9666"/>
</linearGradient>
<linearGradient id="paint78_linear_370_537" x1="945.215" y1="288.243" x2="841.076" y2="212.047" gradientUnits="userSpaceOnUse">
<stop stop-color="#F26E30"/>
<stop offset="1" stop-color="#FF9666"/>
</linearGradient>
<linearGradient id="paint79_linear_370_537" x1="986.351" y1="289.898" x2="975.996" y2="158.596" gradientUnits="userSpaceOnUse">
<stop stop-color="#F26E30"/>
<stop offset="1" stop-color="#FF9666"/>
</linearGradient>
<linearGradient id="paint80_linear_370_537" x1="1057.67" y1="286.276" x2="1153.25" y2="503.587" gradientUnits="userSpaceOnUse">
<stop stop-color="#708033"/>
<stop offset="0.791667" stop-color="#94A64B"/>
</linearGradient>
<linearGradient id="paint81_linear_370_537" x1="1169.99" y1="437.763" x2="1158.34" y2="860.468" gradientUnits="userSpaceOnUse">
<stop stop-color="#708033"/>
<stop offset="0.791667" stop-color="#94A64B"/>
</linearGradient>
<linearGradient id="paint82_linear_370_537" x1="1178.48" y1="123.87" x2="1138.77" y2="346.813" gradientUnits="userSpaceOnUse">
<stop offset="0.541667" stop-color="#F25030"/>
<stop offset="1" stop-color="#A63620"/>
<stop offset="1" stop-color="#B33B24"/>
</linearGradient>
<linearGradient id="paint83_linear_370_537" x1="1158.69" y1="424.645" x2="929.201" y2="87.9657" gradientUnits="userSpaceOnUse">
<stop offset="0.148139" stop-color="#B33B24"/>
<stop offset="0.322515" stop-color="#F25030"/>
</linearGradient>
<linearGradient id="paint84_linear_370_537" x1="1266.68" y1="338.283" x2="1460.05" y2="602.241" gradientUnits="userSpaceOnUse">
<stop stop-color="#708033"/>
<stop offset="0.791667" stop-color="#94A64B"/>
</linearGradient>
<linearGradient id="paint85_linear_370_537" x1="1079.91" y1="435.777" x2="1185.8" y2="773.588" gradientUnits="userSpaceOnUse">
<stop stop-color="#708033"/>
<stop offset="0.791667" stop-color="#94A64B"/>
</linearGradient>
<linearGradient id="paint86_linear_370_537" x1="610.276" y1="325.487" x2="614.602" y2="488.207" gradientUnits="userSpaceOnUse">
<stop stop-color="#708033"/>
<stop offset="0.791667" stop-color="#94A64B"/>
</linearGradient>
<linearGradient id="paint87_linear_370_537" x1="616.813" y1="331.459" x2="685.487" y2="264.875" gradientUnits="userSpaceOnUse">
<stop offset="0.486081" stop-color="#FFB81A"/>
<stop offset="1" stop-color="#FFD24D"/>
</linearGradient>
<linearGradient id="paint88_linear_370_537" x1="616.089" y1="339.33" x2="627.724" y2="271.223" gradientUnits="userSpaceOnUse">
<stop stop-color="#FFB81A"/>
<stop offset="1" stop-color="#FFD24D"/>
</linearGradient>
<linearGradient id="paint89_linear_370_537" x1="-64.4322" y1="520.961" x2="55.7885" y2="937.035" gradientUnits="userSpaceOnUse">
<stop stop-color="#708033"/>
<stop offset="0.791667" stop-color="#94A64B"/>
</linearGradient>
<linearGradient id="paint90_linear_370_537" x1="-189.031" y1="127.787" x2="-61.4851" y2="404.488" gradientUnits="userSpaceOnUse">
<stop offset="0.541667" stop-color="#F25030"/>
<stop offset="1" stop-color="#A63620"/>
<stop offset="1" stop-color="#B33B24"/>
</linearGradient>
<linearGradient id="paint91_linear_370_537" x1="-60.9366" y1="512.582" x2="123.245" y2="-3.76889" gradientUnits="userSpaceOnUse">
<stop offset="0.148139" stop-color="#B33B24"/>
<stop offset="0.322515" stop-color="#F25030"/>
</linearGradient>
<linearGradient id="paint92_linear_370_537" x1="455.907" y1="278.123" x2="528.642" y2="480.695" gradientUnits="userSpaceOnUse">
<stop stop-color="#708033"/>
<stop offset="0.791667" stop-color="#94A64B"/>
</linearGradient>
<linearGradient id="paint93_linear_370_537" x1="494.116" y1="237.239" x2="479.973" y2="335.077" gradientUnits="userSpaceOnUse">
<stop stop-color="#FF9666"/>
<stop offset="0.729167" stop-color="#F26E30"/>
</linearGradient>
<linearGradient id="paint94_linear_370_537" x1="456.755" y1="332.76" x2="398.324" y2="264.285" gradientUnits="userSpaceOnUse">
<stop offset="0.208333" stop-color="#F26E30"/>
<stop offset="0.979167" stop-color="#FF9666"/>
</linearGradient>
<linearGradient id="paint95_linear_370_537" x1="498.396" y1="320.118" x2="554.67" y2="226.601" gradientUnits="userSpaceOnUse">
<stop stop-color="#F26E30"/>
<stop offset="1" stop-color="#FF9666"/>
</linearGradient>
<linearGradient id="paint96_linear_370_537" x1="466.782" y1="334.831" x2="432.459" y2="230.877" gradientUnits="userSpaceOnUse">
<stop stop-color="#F26E30"/>
<stop offset="1" stop-color="#FF9666"/>
</linearGradient>
<linearGradient id="paint97_linear_370_537" x1="391.375" y1="325.147" x2="517.71" y2="465.061" gradientUnits="userSpaceOnUse">
<stop stop-color="#708033"/>
<stop offset="0.791667" stop-color="#94A64B"/>
</linearGradient>
<linearGradient id="paint98_linear_370_537" x1="767.58" y1="302.534" x2="815.896" y2="517.668" gradientUnits="userSpaceOnUse">
<stop stop-color="#708033"/>
<stop offset="0.791667" stop-color="#94A64B"/>
</linearGradient>
<linearGradient id="paint99_linear_370_537" x1="715.216" y1="258.328" x2="757.706" y2="313.845" gradientUnits="userSpaceOnUse">
<stop stop-color="#FF9666"/>
<stop offset="0.729167" stop-color="#F26E30"/>
</linearGradient>
<linearGradient id="paint100_linear_370_537" x1="769.974" y1="305.371" x2="783.342" y2="242.318" gradientUnits="userSpaceOnUse">
<stop offset="0.208333" stop-color="#F26E30"/>
<stop offset="0.979167" stop-color="#FF9666"/>
</linearGradient>
<linearGradient id="paint101_linear_370_537" x1="740.104" y1="311.784" x2="673.78" y2="273.504" gradientUnits="userSpaceOnUse">
<stop stop-color="#F26E30"/>
<stop offset="1" stop-color="#FF9666"/>
</linearGradient>
<linearGradient id="paint102_linear_370_537" x1="764.481" y1="310.124" x2="749.955" y2="233.321" gradientUnits="userSpaceOnUse">
<stop stop-color="#F26E30"/>
<stop offset="1" stop-color="#FF9666"/>
</linearGradient>
<linearGradient id="paint103_linear_370_537" x1="797.585" y1="260.668" x2="846.932" y2="421.373" gradientUnits="userSpaceOnUse">
<stop stop-color="#708033"/>
<stop offset="0.791667" stop-color="#94A64B"/>
</linearGradient>
<linearGradient id="paint104_linear_370_537" x1="203.267" y1="431.959" x2="129.437" y2="860.535" gradientUnits="userSpaceOnUse">
<stop stop-color="#708033"/>
<stop offset="0.791667" stop-color="#94A64B"/>
</linearGradient>
<linearGradient id="paint105_linear_370_537" x1="266.558" y1="355.004" x2="248.359" y2="396.384" gradientUnits="userSpaceOnUse">
<stop stop-color="#FFB81A"/>
<stop offset="1" stop-color="#FFD24D"/>
</linearGradient>
<linearGradient id="paint106_linear_370_537" x1="532.584" y1="315.728" x2="614.062" y2="532.328" gradientUnits="userSpaceOnUse">
<stop stop-color="#708033"/>
<stop offset="0.791667" stop-color="#94A64B"/>
</linearGradient>
<linearGradient id="paint107_linear_370_537" x1="541.921" y1="272.366" x2="544.707" y2="296.26" gradientUnits="userSpaceOnUse">
<stop stop-color="#FFB81A"/>
<stop offset="1" stop-color="#FFD24D"/>
</linearGradient>
<linearGradient id="paint108_linear_370_537" x1="844.182" y1="346.43" x2="903.647" y2="528.652" gradientUnits="userSpaceOnUse">
<stop stop-color="#708033"/>
<stop offset="0.791667" stop-color="#94A64B"/>
</linearGradient>
<linearGradient id="paint109_linear_370_537" x1="797.218" y1="211.056" x2="843.145" y2="302.843" gradientUnits="userSpaceOnUse">
<stop offset="0.541667" stop-color="#F25030"/>
<stop offset="1" stop-color="#A63620"/>
<stop offset="1" stop-color="#B33B24"/>
</linearGradient>
<linearGradient id="paint110_linear_370_537" x1="844.417" y1="339.271" x2="900.831" y2="163.242" gradientUnits="userSpaceOnUse">
<stop offset="0.148139" stop-color="#B33B24"/>
<stop offset="0.322515" stop-color="#F25030"/>
</linearGradient>
<linearGradient id="paint111_linear_370_537" x1="980.899" y1="388.472" x2="1052.47" y2="753.328" gradientUnits="userSpaceOnUse">
<stop stop-color="#708033"/>
<stop offset="0.791667" stop-color="#94A64B"/>
</linearGradient>
<linearGradient id="paint112_linear_370_537" x1="917.767" y1="306.306" x2="939.407" y2="355.51" gradientUnits="userSpaceOnUse">
<stop stop-color="#FFB81A"/>
<stop offset="1" stop-color="#FFD24D"/>
</linearGradient>
<linearGradient id="paint113_linear_370_537" x1="937.831" y1="426.764" x2="963.396" y2="643.624" gradientUnits="userSpaceOnUse">
<stop stop-color="#708033"/>
<stop offset="0.791667" stop-color="#94A64B"/>
</linearGradient>
<linearGradient id="paint114_linear_370_537" x1="1326.61" y1="436.681" x2="1110.68" y2="600.858" gradientUnits="userSpaceOnUse">
<stop stop-color="#708033"/>
<stop offset="0.791667" stop-color="#94A64B"/>
</linearGradient>
</defs>
</svg>
