<svg width="1280" height="1658" viewBox="0 0 1280 1658" fill="none" xmlns="http://www.w3.org/2000/svg">
<path d="M0 1146.5H1280V0.999667C1266.5 -1.99977 1227.5 20.7022 1079.5 38.4997C994.208 48.7564 896.5 100.5 825.5 125C716.491 162.616 668.893 131.515 578 155.5C478.103 181.86 411.5 182 366 182C313.549 182 267.683 196.901 193 197.5C140.829 197.918 60.8674 164.186 0 172V1146.5Z" fill="#708033"/>
<path d="M1251.46 91.1943C1308.02 97.7569 1347.44 89.303 1327.78 68.0084C1304.38 42.6594 1220.4 43.3557 1188.9 48.0441C1156.95 52.8002 1120.52 65.2324 1131.83 74.4751C1146.93 86.8136 1173.02 79.956 1193.97 80.6661C1214.92 81.3761 1236.46 89.4544 1251.46 91.1943Z" fill="#369AB3"/>
<path d="M1280 1657.5H0V6.00024C94.498 33.5687 150.5 49.4031 200.5 57.6911C360.288 84.1776 549.411 144.167 702 199.669C816.533 241.328 967.822 274.165 1087 275.482C1171 275.482 1241 240.332 1280 240.332V1657.5Z" fill="#94A64B"/>
</svg>
